<?xml version="1.0" standalone="no"?>
<!DOCTYPE svg PUBLIC "-//W3C//DTD SVG 1.1//EN" "http://www.w3.org/Graphics/SVG/1.1/DTD/svg11.dtd" >
<svg xmlns="http://www.w3.org/2000/svg" xmlns:xlink="http://www.w3.org/1999/xlink" version="1.1">
<metadata>
Created by FontForge 20160407 at Wed May 11 09:09:54 2016
 By Jimmy Wärting
2000 Albert-Jan Pool, published by Fontshop International for the FontFont library.
</metadata>
<defs>
<font id="DINCond-Light" horiz-adv-x="338" >
  <font-face 
    font-family="DINCond-Light Light Cond"
    font-weight="300"
    font-stretch="condensed"
    units-per-em="1000"
    panose-1="0 0 0 0 0 0 0 0 0 0"
    ascent="750"
    descent="-250"
    x-height="502"
    cap-height="712"
    bbox="-101 -216 796 922"
    underline-thickness="77"
    underline-position="-114"
    unicode-range="U+000D-FB02"
  />
<missing-glyph horiz-adv-x="186" 
 />
    <glyph glyph-name=".notdef" horiz-adv-x="186" 
 />
    <glyph glyph-name=".null" horiz-adv-x="0" 
 />
    <glyph glyph-name=".null" horiz-adv-x="0" 
 />
    <glyph glyph-name="nonmarkingreturn" unicode="&#xd;" horiz-adv-x="250" 
 />
    <glyph glyph-name="space" unicode=" " horiz-adv-x="200" 
 />
    <glyph glyph-name="exclam" unicode="!" horiz-adv-x="216" 
d="M104 182v530h38v-530h-38zM94 0v58h58v-58h-58z" />
    <glyph glyph-name="quotedbl" unicode="&#x22;" horiz-adv-x="322" 
d="M212 536v176h52v-176h-52zM58 536v176h52v-176h-52z" />
    <glyph glyph-name="numbersign" unicode="#" horiz-adv-x="461" 
d="M325 449l-22 -176h74v-33h-78l-29 -240h-34l29 240h-100l-29 -240h-34l29 240h-73v33h77l22 176h-73l-1 33h78l28 230h34l-28 -230h100l28 230h34l-28 -230h73l1 -33h-78zM191 449l-22 -176h100l22 176h-100z" />
    <glyph glyph-name="dollar" unicode="$" horiz-adv-x="388" 
d="M331 182q0 -57 -10.5 -93t-33.5 -60q-28 -28 -78 -34v-109h-36v108q-28 2 -50 10t-39 25q-12 12 -19.5 25t-12.5 29.5t-7 38t-2 51.5h40q0 -46 6.5 -72t24.5 -44q22 -22 59 -25v321l-33 14q-27 12 -45 26t-28.5 34.5t-14.5 48.5t-4 68q0 92 45 137q16 15 35.5 24.5
t44.5 11.5v89h36v-89q50 -4 82 -36q26 -26 33 -56.5t7 -75.5h-40q0 37 -6.5 61t-23.5 44q-20 21 -52 27v-299l35 -14q28 -11 45 -28t26.5 -40t12.5 -52.5t3 -65.5zM291 181q0 35 -3.5 59.5t-12.5 42.5t-24 30.5t-38 23.5l-4 2v-306q17 2 29 8.5t21 15.5q20 20 26 48.5
t6 75.5zM173 681q-31 -4 -50 -23q-19 -18 -27 -47.5t-8 -65.5q0 -34 3.5 -56.5t12.5 -38t25 -27.5t42 -25l2 -1v284z" />
    <glyph glyph-name="percent" unicode="%" horiz-adv-x="576" 
d="M234 438q0 -41 -24 -66.5t-64 -25.5t-64 25.5t-24 66.5v190q0 41 24 66.5t64 25.5t64 -25.5t24 -66.5v-190zM518 84q0 -41 -24 -66.5t-64 -25.5t-64 25.5t-24 66.5v190q0 41 24 66.5t64 25.5t64 -25.5t24 -66.5v-190zM483 274q0 28 -13.5 44.5t-39.5 16.5t-39.5 -16.5
t-13.5 -44.5v-190q0 -28 13.5 -44.5t39.5 -16.5t39.5 16.5t13.5 44.5v190zM199 628q0 28 -13.5 44.5t-39.5 16.5t-39.5 -16.5t-13.5 -44.5v-190q0 -28 13.5 -44.5t39.5 -16.5t39.5 16.5t13.5 44.5v190zM181 0h-34l248 712h34z" />
    <glyph glyph-name="ampersand" unicode="&#x26;" horiz-adv-x="481" 
d="M428 0l-61 92q-17 -22 -34.5 -40.5t-37.5 -31.5t-44 -20.5t-56 -7.5q-31 0 -59.5 11.5t-49.5 33t-33.5 52.5t-12.5 71q0 33 7.5 61.5t23.5 55.5t40.5 54t58.5 57q-28 41 -46.5 68t-29.5 48t-15 38.5t-4 38.5q0 24 7.5 48.5t23.5 44t40.5 32t58.5 12.5q64 0 97 -36t33 -93
q0 -31 -6 -56.5t-20 -49t-36 -47.5t-54 -53l149 -223q11 17 20 38.5t16 45.5t12 49t6 48h40q-5 -62 -23 -117t-48 -98l84 -126h-47zM190 358q-57 -54 -83.5 -98t-26.5 -95q0 -27 7.5 -52t22.5 -43.5t37.5 -30t51.5 -11.5q45 0 79.5 27.5t66.5 69.5zM295 587q0 42 -25 69
t-65 27q-24 0 -41.5 -9.5t-28 -24.5t-15.5 -32.5t-5 -34.5q0 -16 3.5 -31t12.5 -33.5t25.5 -43t42.5 -61.5q23 21 40.5 40.5t30 39.5t19 43t6.5 51z" />
    <glyph glyph-name="quotesingle" unicode="'" horiz-adv-x="168" 
d="M58 536v176h52v-176h-52z" />
    <glyph glyph-name="parenleft" unicode="(" horiz-adv-x="206" 
d="M140 -94q-19 19 -34.5 37.5t-25.5 36.5q-11 23 -14.5 44.5t-3.5 45.5v572q0 24 3.5 45.5t14.5 44.5q11 22 26 38.5t34 35.5l26 -26q-14 -14 -28 -28.5t-23 -33.5q-8 -17 -11.5 -37.5t-3.5 -44.5v-560q0 -24 3.5 -44.5t11.5 -37.5q9 -19 23 -33.5t28 -28.5z" />
    <glyph glyph-name="parenright" unicode=")" horiz-adv-x="206" 
d="M144 70q0 -24 -3.5 -45.5t-14.5 -44.5q-10 -18 -25.5 -36.5t-34.5 -37.5l-26 26q14 14 28 28.5t23 33.5q8 17 11.5 37.5t3.5 44.5v560q0 24 -3.5 44.5t-11.5 37.5q-9 19 -23 33.5t-28 28.5l26 26q19 -19 34 -35.5t26 -38.5q11 -23 14.5 -44.5t3.5 -45.5v-572z" />
    <glyph glyph-name="asterisk" unicode="*" horiz-adv-x="352" 
d="M281 484l-90 53l2 -127h-34l2 127l-90 -53l-17 30l91 50l-91 50l17 30l90 -53l-2 127h34l-2 -127l90 53l17 -30l-91 -50l91 -50z" />
    <glyph glyph-name="plus" unicode="+" horiz-adv-x="422" 
d="M229 255v-143h-36v143h-143v36h143v143h36v-143h143v-36h-143z" />
    <glyph glyph-name="comma" unicode="," horiz-adv-x="168" 
d="M58 -80v140h52v-102z" />
    <glyph glyph-name="hyphen" unicode="-" horiz-adv-x="303" 
d="M58 255v36h187v-36h-187z" />
    <glyph glyph-name="period" unicode="." horiz-adv-x="186" 
d="M64 0v58h58v-58h-58z" />
    <glyph glyph-name="slash" unicode="/" horiz-adv-x="227" 
d="M42 -74h-42l185 860h42z" />
    <glyph glyph-name="zero" unicode="0" horiz-adv-x="346" 
d="M288 119q0 -35 -9 -57.5t-24 -37.5q-14 -14 -36 -23t-46 -9t-46 9t-36 23q-15 15 -24 37.5t-9 57.5v474q0 35 9 57.5t24 37.5q14 14 36 23t46 9t46 -9t36 -23q15 -15 24 -37.5t9 -57.5v-474zM250 595q0 46 -22.5 68.5t-54.5 22.5t-54.5 -22.5t-22.5 -68.5v-478
q0 -46 22.5 -68.5t54.5 -22.5t54.5 22.5t22.5 68.5v478z" />
    <glyph glyph-name="one" unicode="1" horiz-adv-x="346" 
d="M161 0v667l-100 -90v48l100 87h38v-712h-38z" />
    <glyph glyph-name="two" unicode="2" horiz-adv-x="346" 
d="M53 0v31l166 407q13 32 24.5 70.5t11.5 86.5q0 46 -22.5 68.5t-54.5 22.5t-54.5 -22.5t-22.5 -68.5v-52h-38v52q0 33 9 55.5t24 37.5q14 14 36 23t46 9t46 -9t36 -23q15 -15 24 -37.5t9 -57.5q0 -42 -12.5 -86.5t-28.5 -82.5l-159 -390h200v-34h-240z" />
    <glyph glyph-name="three" unicode="3" horiz-adv-x="346" 
d="M287 194q0 -39 -1.5 -66t-6 -46t-11.5 -32t-18 -25q-14 -14 -36 -23.5t-46 -9.5t-46 8.5t-36 22.5q-15 15 -24.5 37.5t-9.5 57.5v51h38v-51q0 -46 23 -69t55 -23q34 0 53 22q8 9 13 19.5t8.5 26.5t5 40t1.5 60q0 41 -1.5 66t-4.5 41t-8.5 25t-13.5 18q-21 22 -53 22h-43
v34h43q31 0 49 19q14 15 20 41t6 83t-6 83t-19 40q-20 20 -50 20q-32 0 -52.5 -23t-20.5 -69v-51h-38v51q0 35 8.5 57.5t23.5 37.5q14 14 34.5 22.5t44.5 8.5q49 0 79 -30q9 -9 15.5 -20.5t10.5 -28.5t6 -40.5t2 -57.5q0 -29 -1 -48.5t-3.5 -33.5t-6.5 -23.5t-9 -18.5
q-14 -23 -40 -36q25 -13 39 -31q8 -10 13 -20.5t8 -27t4.5 -42.5t1.5 -68z" />
    <glyph glyph-name="four" unicode="4" horiz-adv-x="346" 
d="M260 128v-128h-38v128h-185v34l180 550h38l-180 -550h147v226h38v-226h50v-34h-50z" />
    <glyph glyph-name="five" unicode="5" horiz-adv-x="346" 
d="M292 222q0 -45 -1.5 -75.5t-6 -52t-11.5 -36.5t-18 -28q-14 -17 -36 -27.5t-46 -10.5t-46 8t-36 22q-15 15 -25 38t-10 58v51h38v-47q0 -51 23 -73.5t56 -22.5q16 0 30 6.5t24 20.5q8 10 13 22t8 31t4.5 46.5t1.5 69.5t-1.5 70t-5 46.5t-8.5 31t-13 22.5q-19 26 -53 26
q-33 0 -56 -24.5t-23 -65.5v-40h-35v424h223v-34h-188v-274q5 10 14 19t18 14q20 14 54 14q24 0 43 -10t33 -27q11 -13 18 -28t11 -36.5t5.5 -52t1.5 -75.5z" />
    <glyph glyph-name="six" unicode="6" horiz-adv-x="346" 
d="M292 208q0 -42 -1.5 -71.5t-5.5 -50t-11 -34.5t-19 -27q-14 -16 -36 -24.5t-46 -8.5t-46 8.5t-36 24.5q-12 13 -19 27t-11 34.5t-5.5 50t-1.5 71.5q0 65 6.5 110.5t22.5 88.5l111 305h37l-114 -313q14 11 29 17.5t35 6.5q46 0 76 -32q10 -10 16.5 -22t10.5 -31.5t6 -50
t2 -79.5zM254 208q0 72 -5 107t-22 53q-21 22 -54 22t-54 -22q-17 -18 -22 -53t-5 -107t5 -107t22 -53q21 -22 54 -22t54 22q17 18 22 53t5 107z" />
    <glyph glyph-name="seven" unicode="7" horiz-adv-x="346" 
d="M105 0h-42l192 678h-165v-123h-38v157h243v-30z" />
    <glyph glyph-name="eight" unicode="8" horiz-adv-x="346" 
d="M292 194q0 -39 -1.5 -66t-6 -46t-11.5 -32t-18 -25q-14 -14 -36 -23.5t-46 -9.5t-46 9.5t-36 23.5q-11 12 -18 25t-11.5 32t-6 46t-1.5 66q0 42 1.5 68t4.5 42.5t8.5 27t12.5 20.5q14 18 39 31q-26 13 -40 36q-5 9 -9 18.5t-6.5 23.5t-4 33.5t-1.5 48.5q0 34 2 57.5
t6 40.5t11 28.5t16 20.5q30 30 79 30t79 -30q9 -9 16 -20.5t11 -28.5t6 -40.5t2 -57.5q0 -29 -1.5 -48.5t-4 -33.5t-6.5 -23.5t-9 -18.5q-14 -23 -40 -36q25 -13 39 -31q8 -10 13 -20.5t8 -27t4.5 -42.5t1.5 -68zM254 194q0 41 -1.5 66t-4.5 41t-8.5 25t-13.5 18
q-21 22 -53 22t-53 -22q-8 -9 -13.5 -18t-8.5 -25t-4.5 -41t-1.5 -66q0 -36 1.5 -60t5 -40t9 -26.5t12.5 -19.5q19 -22 53 -22t53 22q8 9 13 19.5t8.5 26.5t5 40t1.5 60zM249 543q0 57 -6.5 83t-19.5 40q-20 20 -50 20t-50 -20q-13 -14 -19.5 -40t-6.5 -83t6.5 -83t20.5 -41
q18 -19 49 -19t49 19q14 15 20.5 41t6.5 83z" />
    <glyph glyph-name="nine" unicode="9" horiz-adv-x="346" 
d="M292 504q0 -65 -6.5 -110.5t-22.5 -88.5l-111 -305h-37l114 313q-14 -11 -29 -17.5t-35 -6.5q-46 0 -76 32q-10 11 -16.5 22.5t-10.5 31t-6 50t-2 79.5q0 42 1.5 71.5t5.5 50t11 34.5t19 27q14 16 36 24.5t46 8.5t46 -8.5t36 -24.5q12 -13 19 -27t11 -34.5t5.5 -50
t1.5 -71.5zM254 504q0 72 -5 107t-22 53q-21 22 -54 22t-54 -22q-17 -18 -22 -53t-5 -107t5 -107t22 -53q21 -22 54 -22t54 22q17 18 22 53t5 107z" />
    <glyph glyph-name="colon" unicode=":" horiz-adv-x="216" 
d="M94 349v58h58v-58h-58zM94 0v58h58v-58h-58z" />
    <glyph glyph-name="semicolon" unicode=";" horiz-adv-x="216" 
d="M97 -80v140h52v-102zM94 349v58h58v-58h-58z" />
    <glyph glyph-name="less" unicode="&#x3c;" horiz-adv-x="346" 
d="M34 261v40l278 161v-44l-238 -137l238 -137v-44z" />
    <glyph glyph-name="equal" unicode="=" horiz-adv-x="422" 
d="M50 310v36h322v-36h-322zM50 180v36h322v-36h-322z" />
    <glyph glyph-name="greater" unicode="&#x3e;" horiz-adv-x="346" 
d="M34 100v44l238 137l-238 137v44l278 -161v-40z" />
    <glyph glyph-name="question" unicode="?" horiz-adv-x="356" 
d="M310 555q0 -33 -4.5 -57.5t-22.5 -54.5l-58 -98q-11 -19 -16 -37.5t-5 -39.5v-86h-38v91q0 43 22 81l58 98q17 28 21.5 50t4.5 53q0 46 -8.5 68.5t-22.5 37.5q-11 11 -25 17t-34 6t-33.5 -6t-24.5 -16q-17 -17 -22.5 -41t-5.5 -47h-38q0 35 7.5 62.5t28.5 47.5
q34 34 88 34q27 0 49.5 -7.5t40.5 -26.5t28 -45.5t10 -83.5zM156 0v58h58v-58h-58z" />
    <glyph glyph-name="at" unicode="@" horiz-adv-x="482" 
d="M380 0v41q-4 -8 -12 -16.5t-14 -13.5q-13 -9 -27 -14t-33 -5q-45 0 -75 32q-15 15 -23 37.5t-8 57.5v236q0 35 8 57.5t23 37.5q30 32 75 32q21 0 34 -4t27 -13q5 -4 13 -12t12 -17v144q0 50 -25.5 75t-66.5 25h-100q-40 0 -66 -25t-26 -75v-491q0 -48 26 -72l-25 -25
q-23 19 -31 45.5t-8 55.5v483q0 38 9.5 61t26.5 40q15 15 38 25t54 10h104q31 0 54 -10t38 -25q17 -17 26.5 -40t9.5 -61v-576h-38zM380 357q0 46 -22.5 68.5t-54.5 22.5t-54.5 -22.5t-22.5 -68.5v-240q0 -46 22.5 -68.5t54.5 -22.5t54.5 22.5t22.5 68.5v240z" />
    <glyph glyph-name="A" unicode="A" horiz-adv-x="347" 
d="M299 0l-43 214h-166l-42 -214h-44l153 712h36l150 -712h-44zM173 630l-75 -380h151z" />
    <glyph glyph-name="B" unicode="B" horiz-adv-x="396" 
d="M342 193q0 -34 -2.5 -58t-8 -41t-13.5 -30t-19 -24q-21 -22 -48.5 -31t-69.5 -9h-109v712h110q42 0 68 -8.5t46 -31.5q22 -24 30 -54.5t8 -86.5q0 -38 -7.5 -71t-36.5 -62q-22 -22 -47 -29q29 -6 53 -28q31 -31 38.5 -69t7.5 -79zM302 193q0 85 -30 121t-84 36h-76v-314
h76q27 0 48 7t35.5 24.5t22.5 48t8 77.5zM294 531q0 43 -7.5 71t-21 44.5t-33 23t-44.5 6.5h-76v-290h76q50 0 78 33.5t28 111.5z" />
    <glyph glyph-name="C" unicode="C" horiz-adv-x="382" 
d="M338 154q0 -41 -11 -75.5t-36 -56.5q-33 -30 -88 -30q-29 0 -53.5 9t-41.5 26q-16 16 -25.5 35t-15 53.5t-7.5 91.5t-2 149t2 149t7.5 91.5t15 53.5t25.5 35q17 17 41.5 26t53.5 9q32 0 54.5 -9t39.5 -26q22 -23 31.5 -56t9.5 -71h-40q0 29 -7 57t-25 46q-23 23 -63 23
q-44 0 -67 -25q-12 -13 -19.5 -28.5t-11.5 -47t-5.5 -85t-1.5 -142.5t1.5 -142.5t5.5 -85t11.5 -47t19.5 -28.5q23 -25 67 -25q21 0 36.5 6t26.5 17q18 18 25 46t7 57h40z" />
    <glyph glyph-name="D" unicode="D" horiz-adv-x="407" 
d="M349 356q0 -91 -1.5 -146.5t-7 -89.5t-15 -52t-25.5 -34q-34 -34 -94 -34h-134v712h134q60 0 94 -34q16 -16 25.5 -34t15 -52t7 -89.5t1.5 -146.5zM309 356q0 87 -1.5 139.5t-5.5 83.5t-11.5 46t-20.5 28q-23 23 -67 23h-91v-640h91q44 0 67 23q13 13 20.5 28.5t11.5 46
t5.5 83t1.5 139.5z" />
    <glyph glyph-name="E" unicode="E" horiz-adv-x="352" 
d="M72 0v712h230v-36h-190v-302h164v-36h-164v-302h190v-36h-230z" />
    <glyph glyph-name="F" unicode="F" horiz-adv-x="348" 
d="M112 676v-302h164v-36h-164v-338h-40v712h230v-36h-190z" />
    <glyph glyph-name="G" unicode="G" horiz-adv-x="396" 
d="M338 138q0 -37 -11.5 -64.5t-30 -45.5t-43 -27t-50.5 -9q-29 0 -53.5 9t-41.5 26q-16 16 -25.5 35t-15 53.5t-7.5 91.5t-2 149t2 149t7.5 91.5t15 53.5t25.5 35q17 17 41.5 26t53.5 9q32 0 55 -9.5t40 -26.5q21 -23 30.5 -55t9.5 -71h-40q0 24 -4 46.5t-15 40t-29 28.5
t-47 11q-44 0 -67 -25q-12 -13 -19.5 -28.5t-11.5 -47t-5.5 -85t-1.5 -142.5t1.5 -142.5t5.5 -85t11.5 -47t19.5 -28.5q23 -25 67 -25q39 0 67 28t28 84v198h-95v36h135v-236z" />
    <glyph glyph-name="H" unicode="H" horiz-adv-x="414" 
d="M302 0v344h-190v-344h-40v712h40v-332h190v332h40v-712h-40z" />
    <glyph glyph-name="I" unicode="I" horiz-adv-x="184" 
d="M72 0v712h40v-712h-40z" />
    <glyph glyph-name="J" unicode="J" horiz-adv-x="312" 
d="M248 141q0 -73 -40 -113q-19 -19 -44 -27.5t-51 -8.5q-33 0 -58 12.5t-45 35.5l30 25q14 -17 32 -27t41 -10q40 0 67.5 28t27.5 85v571h40v-571z" />
    <glyph glyph-name="K" unicode="K" horiz-adv-x="387" 
d="M333 0l-147 373l-74 -145v-228h-40v712h40v-406l202 406h44l-146 -293l165 -419h-44z" />
    <glyph glyph-name="L" unicode="L" horiz-adv-x="324" 
d="M72 0v712h40v-676h190v-36h-230z" />
    <glyph glyph-name="M" unicode="M" horiz-adv-x="542" 
d="M430 0v619l-142 -406h-36l-140 392v-605h-40v712h44l155 -435l155 435h44v-712h-40z" />
    <glyph glyph-name="N" unicode="N" horiz-adv-x="438" 
d="M322 0l-210 602v-602h-40v712h44l211 -602l-1 602h40v-712h-44z" />
    <glyph glyph-name="O" unicode="O" horiz-adv-x="406" 
d="M348 356q0 -92 -2 -149t-7.5 -91.5t-15 -53.5t-25.5 -35q-17 -17 -41.5 -26t-53.5 -9t-53.5 9t-41.5 26q-16 16 -25.5 35t-15 53.5t-7.5 91.5t-2 149t2 149t7.5 91.5t15 53.5t25.5 35q17 17 41.5 26t53.5 9t53.5 -9t41.5 -26q16 -16 25.5 -35t15 -53.5t7.5 -91.5t2 -149z
M308 356q0 89 -1.5 142.5t-5.5 85t-11.5 47t-19.5 28.5q-23 25 -67 25t-67 -25q-12 -13 -19.5 -28.5t-11.5 -47t-5.5 -85t-1.5 -142.5t1.5 -142.5t5.5 -85t11.5 -47t19.5 -28.5q23 -25 67 -25t67 25q12 13 19.5 28.5t11.5 47t5.5 85t1.5 142.5z" />
    <glyph glyph-name="P" unicode="P" horiz-adv-x="392" 
d="M342 520q0 -57 -10 -94t-28.5 -59t-45.5 -30.5t-60 -8.5h-86v-328h-40v712h126q26 0 52 -5.5t46.5 -25.5t33 -58t12.5 -103zM302 520q0 78 -22 117t-79 39h-89v-312h89q57 0 79 39t22 117z" />
    <glyph glyph-name="Q" unicode="Q" horiz-adv-x="406" 
d="M346 -26l-55 46q-36 -28 -88 -28q-29 0 -53.5 9t-41.5 26q-16 16 -25.5 35t-15 53.5t-7.5 91.5t-2 149t2 149t7.5 91.5t15 53.5t25.5 35q17 17 41.5 26t53.5 9t53.5 -9t41.5 -26q16 -16 25.5 -35t15 -53.5t7.5 -91.5t2 -149q0 -79 -1.5 -132t-5 -87.5t-10 -55
t-17.5 -35.5l54 -46zM308 356q0 89 -1.5 142.5t-5.5 85t-11.5 47.5t-19.5 29q-22 24 -67 24q-44 0 -67 -24q-12 -13 -19.5 -29t-11.5 -47.5t-5.5 -85t-1.5 -142.5t1.5 -142.5t5.5 -85t11.5 -47t19.5 -29.5q23 -24 67 -24q37 0 59 16l-63 53l22 26l63 -53q8 13 12.5 31.5
t7 50t3.5 81t1 123.5z" />
    <glyph glyph-name="R" unicode="R" horiz-adv-x="415" 
d="M321 0l-107 329h-102v-329h-40v712h126q26 0 52 -5.5t46.5 -25.5t33 -58t12.5 -103q0 -88 -24 -130t-66 -55l113 -335h-44zM302 520q0 78 -22 117t-79 39h-89v-312h89q57 0 79 39t22 117z" />
    <glyph glyph-name="S" unicode="S" horiz-adv-x="380" 
d="M331 182q0 -57 -10.5 -93t-33.5 -60q-17 -17 -41.5 -26t-59.5 -9q-32 0 -57.5 8t-44.5 27q-12 12 -19.5 25t-12.5 29.5t-7 38t-2 51.5h40q0 -46 6.5 -72t24.5 -44q26 -26 72 -26q26 0 44 7t29 19q20 20 26 48.5t6 75.5q0 35 -3.5 60.5t-12 43.5t-23.5 30t-39 22l-73 30
q-27 11 -45 25.5t-28.5 34.5t-14.5 48.5t-4 68.5q0 92 45 137q37 37 98 37q63 0 100 -37q26 -26 33 -56.5t7 -75.5h-40q0 37 -6.5 61t-23.5 44q-25 28 -71 28q-23 0 -39 -6.5t-28 -17.5q-19 -18 -27 -47.5t-8 -65.5q0 -34 3 -57t12 -39.5t25 -28t43 -22.5l73 -30
q28 -11 45 -28t26.5 -40t12.5 -52.5t3 -65.5z" />
    <glyph glyph-name="T" unicode="T" horiz-adv-x="322" 
d="M181 676v-676h-40v676h-119v36h278v-36h-119z" />
    <glyph glyph-name="U" unicode="U" horiz-adv-x="398" 
d="M334 138q0 -37 -10.5 -64t-29.5 -45q-19 -19 -44 -28t-51 -9t-51 9t-44 28q-19 18 -29.5 45t-10.5 64v574h40v-578q0 -49 27.5 -77.5t67.5 -28.5t67.5 28.5t27.5 77.5v578h40v-574z" />
    <glyph glyph-name="V" unicode="V" horiz-adv-x="346" 
d="M192 0h-38l-150 712h44l125 -630l125 630h44z" />
    <glyph glyph-name="W" unicode="W" horiz-adv-x="542" 
d="M439 0h-42l-126 630l-124 -630h-42l-101 712h44l78 -630l122 630h46l124 -630l76 630h44z" />
    <glyph glyph-name="X" unicode="X" horiz-adv-x="351" 
d="M285 0l-110 327l-109 -327h-44l129 372l-118 340h44l98 -298l99 298h44l-121 -340l132 -372h-44z" />
    <glyph glyph-name="Y" unicode="Y" horiz-adv-x="289" 
d="M164 305v-305h-40v305l-120 407h44l96 -341l97 341h44z" />
    <glyph glyph-name="Z" unicode="Z" horiz-adv-x="307" 
d="M30 0v32l206 644h-191v36h232v-32l-205 -644h205v-36h-247z" />
    <glyph glyph-name="bracketleft" unicode="[" horiz-adv-x="220" 
d="M66 -74v860h124v-31h-86v-798h86v-31h-124z" />
    <glyph glyph-name="backslash" unicode="\" horiz-adv-x="227" 
d="M185 -74l-185 860h42l185 -860h-42z" />
    <glyph glyph-name="bracketright" unicode="]" horiz-adv-x="220" 
d="M30 -74v31h86v798h-86v31h124v-860h-124z" />
    <glyph glyph-name="asciicircum" unicode="^" horiz-adv-x="442" 
d="M323 440l-102 238l-102 -238h-41l124 278h38l124 -278h-41z" />
    <glyph glyph-name="underscore" unicode="_" horiz-adv-x="422" 
d="M0 -127v32h422v-32h-422z" />
    <glyph glyph-name="grave" unicode="`" 
d="M150 586l-70 126h47l63 -126h-40z" />
    <glyph glyph-name="a" unicode="a" horiz-adv-x="335" 
d="M236 0v47q-5 -11 -13 -20t-13 -14q-12 -10 -26.5 -15.5t-35.5 -5.5q-44 0 -74 30q-14 14 -24 43t-10 71q0 36 10.5 65.5t30.5 48.5q19 17 40.5 25t52.5 8h62v98q0 47 -19 71.5t-58 24.5q-30 0 -50 -20q-14 -14 -19.5 -32t-5.5 -47h-38q0 28 7 54.5t27 46.5q15 15 34 23
t45 8q29 0 49 -7.5t34 -21.5q17 -17 24.5 -40.5t7.5 -58.5v-382h-38zM236 251h-64q-39 0 -64 -24q-14 -14 -22 -38t-8 -53q0 -50 18 -80t59 -30q38 0 59.5 29t21.5 71v125z" />
    <glyph glyph-name="b" unicode="b" horiz-adv-x="350" 
d="M302 251q0 -98 -7.5 -149t-30.5 -76q-31 -34 -74 -34q-35 0 -60 19q-6 5 -14 13.5t-12 16.5v-41h-38v712h38v-249q5 8 12 16.5t14 13.5q24 17 60 17q25 0 43 -10t31 -24q23 -25 30.5 -76t7.5 -149zM264 251q0 45 -1 78t-4 57t-8.5 40t-15.5 27q-9 10 -22 16.5t-30 6.5
q-31 0 -53 -20q-13 -13 -19.5 -31.5t-6.5 -46.5v-254q0 -28 6.5 -46.5t19.5 -31.5q22 -20 53 -20q17 0 30 6.5t22 16.5q10 11 15.5 27t8.5 40t4 57t1 78z" />
    <glyph glyph-name="c" unicode="c" horiz-adv-x="324" 
d="M284 127q0 -36 -7 -60.5t-25 -43.5q-31 -31 -83 -31q-26 0 -47.5 9.5t-35.5 25.5q-11 12 -18.5 30.5t-12 45t-6 63t-1.5 85.5t1.5 85.5t6 63t12 45t18.5 30.5q14 16 35.5 25.5t47.5 9.5q54 0 83 -29q22 -22 27 -49.5t5 -56.5h-37q0 22 -3 42.5t-19 37.5q-20 21 -55 21
q-18 0 -32 -6.5t-23 -16.5q-10 -11 -15.5 -27t-8.5 -40t-4 -57t-1 -78t1 -78t4 -57t8.5 -40t15.5 -27q9 -10 23 -16.5t32 -6.5q15 0 28.5 4.5t24.5 15.5q15 15 19.5 35t4.5 46h37z" />
    <glyph glyph-name="d" unicode="d" horiz-adv-x="350" 
d="M246 0v41q-4 -8 -12 -16.5t-14 -13.5q-25 -19 -60 -19q-43 0 -74 34q-22 25 -30 76t-8 149t8 149t30 76q13 14 31 24t43 10q36 0 60 -17q7 -5 14 -13.5t12 -16.5v249h38v-712h-38zM246 378q0 28 -6.5 46.5t-19.5 31.5q-22 20 -53 20q-17 0 -30 -6.5t-22 -16.5
q-10 -11 -15.5 -27t-8.5 -40t-4 -57t-1 -78t1 -78t4 -57t8.5 -40t15.5 -27q9 -10 22 -16.5t30 -6.5q31 0 53 20q13 13 19.5 31.5t6.5 46.5v254z" />
    <glyph glyph-name="e" unicode="e" horiz-adv-x="333" 
d="M86 251q0 -45 1 -78t4 -57t9 -40t16 -27q9 -10 23 -16.5t32 -6.5q15 0 29.5 4.5t25.5 15.5q26 25 26 81h37q0 -38 -8.5 -61t-26.5 -42q-16 -16 -37.5 -24t-45.5 -8q-28 0 -49 9.5t-35 25.5q-11 12 -18.5 30.5t-12 45t-6.5 63t-2 85.5t1.5 85.5t6 63t12 45t18.5 30.5
q14 16 34.5 25.5t48.5 9.5t48.5 -9.5t34.5 -25.5q11 -12 18.5 -30.5t12 -45t6 -63t1.5 -85.5h-204zM252 283q-1 74 -6 112t-23 58q-9 10 -22.5 16.5t-31.5 6.5t-31.5 -6.5t-22.5 -16.5q-18 -20 -23 -58t-6 -112h166z" />
    <glyph glyph-name="f" unicode="f" horiz-adv-x="225" 
d="M118 471v-471h-38v471h-65v31h65v83q0 62 33 95q20 20 45 26t52 6v-34q-92 0 -92 -91v-85h92v-31h-92z" />
    <glyph glyph-name="g" unicode="g" horiz-adv-x="350" 
d="M284 -17q0 -34 -1.5 -58.5t-5.5 -42.5t-11 -31.5t-18 -25.5q-14 -16 -35 -25.5t-47 -9.5q-53 0 -84 31q-18 19 -25 43.5t-7 60.5h37q0 -26 4.5 -46t19.5 -35q11 -11 25 -15.5t29 -4.5q18 0 31.5 6.5t22.5 16.5q16 17 21.5 48.5t5.5 88.5v55q-3 -8 -11 -16.5t-15 -13.5
q-24 -17 -60 -17q-43 0 -74 34q-22 25 -30 76t-8 149t8 149t30 76q13 14 31 24t43 10q35 0 60 -19q6 -5 14 -13.5t12 -16.5v41h38v-519zM246 378q0 28 -6.5 46.5t-19.5 31.5q-22 20 -53 20q-17 0 -30 -6.5t-22 -16.5q-10 -11 -15.5 -27t-8.5 -40t-4 -57t-1 -78t1 -78t4 -57
t8.5 -40t15.5 -27q9 -10 22 -16.5t30 -6.5q31 0 53 20q13 13 19.5 31.5t6.5 46.5v254z" />
    <glyph glyph-name="h" unicode="h" horiz-adv-x="357" 
d="M258 0v384q0 46 -22.5 68.5t-54.5 22.5t-54.5 -22.5t-22.5 -68.5v-384h-38v712h38v-251q4 8 12 16.5t14 13.5q12 9 26.5 14t33.5 5q45 0 75 -32q15 -15 23 -37.5t8 -57.5v-383h-38z" />
    <glyph glyph-name="i" unicode="i" horiz-adv-x="170" 
d="M66 0v502h38v-502h-38zM57 637v56h56v-56h-56z" />
    <glyph glyph-name="j" unicode="j" horiz-adv-x="170" 
d="M104 -83q0 -35 -9 -57.5t-24 -37.5q-19 -19 -42.5 -25.5t-49.5 -6.5v34q40 0 63.5 20t23.5 71v587h38v-585zM57 637v56h56v-56h-56z" />
    <glyph glyph-name="k" unicode="k" horiz-adv-x="358" 
d="M296 0l-118 281l-74 -119v-162h-38v712h38v-492l171 282h43l-116 -190l136 -312h-42z" />
    <glyph glyph-name="l" unicode="l" horiz-adv-x="200" 
d="M185 0q-26 0 -49.5 6.5t-42.5 25.5q-15 15 -24 37.5t-9 57.5v585h38v-587q0 -91 87 -91v-34z" />
    <glyph glyph-name="m" unicode="m" horiz-adv-x="549" 
d="M450 0v384q0 46 -22.5 68.5t-54.5 22.5t-54.5 -22.5t-22.5 -68.5v-384h-38v384q0 46 -22.5 68.5t-54.5 22.5t-54.5 -22.5t-22.5 -68.5v-384h-38v502h38v-41q4 8 12 16.5t14 13.5q13 9 27 14t33 5q27 0 52.5 -15t39.5 -38q5 9 14 18.5t17 15.5q27 19 63 19q29 0 48 -8.5
t33 -23.5q15 -15 23 -37.5t8 -57.5v-383h-38z" />
    <glyph glyph-name="n" unicode="n" horiz-adv-x="357" 
d="M258 0v384q0 46 -22.5 68.5t-54.5 22.5t-54.5 -22.5t-22.5 -68.5v-384h-38v502h38v-41q4 8 12 16.5t14 13.5q12 9 26.5 14t33.5 5q45 0 75 -32q15 -15 23 -37.5t8 -57.5v-383h-38z" />
    <glyph glyph-name="o" unicode="o" 
d="M290 251q0 -49 -1.5 -85.5t-6 -63t-12 -45t-18.5 -30.5q-14 -16 -34.5 -25.5t-48.5 -9.5t-48.5 9.5t-34.5 25.5q-11 12 -18.5 30.5t-12 45t-6 63t-1.5 85.5t1.5 85.5t6 63t12 45t18.5 30.5q14 16 34.5 25.5t48.5 9.5t48.5 -9.5t34.5 -25.5q11 -12 18.5 -30.5t12 -45
t6 -63t1.5 -85.5zM252 251q0 45 -1 78t-4 57t-8.5 40t-15.5 27q-9 10 -22.5 16.5t-31.5 6.5t-31.5 -6.5t-22.5 -16.5q-10 -11 -15.5 -27t-8.5 -40t-4 -57t-1 -78t1 -78t4 -57t8.5 -40t15.5 -27q9 -10 22.5 -16.5t31.5 -6.5t31.5 6.5t22.5 16.5q10 11 15.5 27t8.5 40t4 57
t1 78z" />
    <glyph glyph-name="p" unicode="p" horiz-adv-x="350" 
d="M302 251q0 -98 -7.5 -149t-30.5 -76q-13 -14 -31 -24t-43 -10q-36 0 -60 17q-7 5 -14 13.5t-12 16.5v-249h-38v712h38v-41q4 8 12 16.5t14 13.5q25 19 60 19q43 0 74 -34q23 -25 30.5 -76t7.5 -149zM264 251q0 45 -1 78t-4 57t-8.5 40t-15.5 27q-9 10 -22 16.5t-30 6.5
q-31 0 -53 -20q-13 -13 -19.5 -31.5t-6.5 -46.5v-254q0 -28 6.5 -46.5t19.5 -31.5q22 -20 53 -20q17 0 30 6.5t22 16.5q10 11 15.5 27t8.5 40t4 57t1 78z" />
    <glyph glyph-name="q" unicode="q" horiz-adv-x="350" 
d="M246 -210v249q-5 -8 -12 -16.5t-14 -13.5q-24 -17 -60 -17q-25 0 -43 10t-31 24q-22 25 -30 76t-8 149t8 149t30 76q31 34 74 34q35 0 60 -19q6 -5 14 -13.5t12 -16.5v41h38v-712h-38zM246 378q0 28 -6.5 46.5t-19.5 31.5q-22 20 -53 20q-17 0 -30 -6.5t-22 -16.5
q-10 -11 -15.5 -27t-8.5 -40t-4 -57t-1 -78t1 -78t4 -57t8.5 -40t15.5 -27q9 -10 22 -16.5t30 -6.5q31 0 53 20q13 13 19.5 31.5t6.5 46.5v254z" />
    <glyph glyph-name="r" unicode="r" horiz-adv-x="225" 
d="M206 476q-48 0 -75 -27t-27 -75v-374h-38v502h38v-53q2 7 7.5 15.5t9.5 12.5q17 18 39.5 25.5t49.5 7.5v-34h-4z" />
    <glyph glyph-name="s" unicode="s" horiz-adv-x="320" 
d="M285 122q0 -27 -10 -51.5t-27 -41.5t-40 -27t-51 -10q-27 0 -48 9t-37 25q-22 22 -29.5 49t-7.5 58h38q0 -27 6 -47.5t23 -37.5q11 -11 25.5 -16.5t29.5 -5.5q39 0 64 25q12 13 19 30.5t7 40.5q0 17 -3.5 32t-11.5 29t-22 25.5t-33 22.5l-61 37q-23 14 -39 30t-23 29
q-8 14 -10.5 29t-2.5 33q0 26 10 49t27 40q16 15 37 23.5t46 8.5q52 0 84 -32q19 -19 26.5 -45t7.5 -62h-38q0 32 -5.5 50.5t-19.5 32.5q-11 12 -25.5 17t-29.5 5q-36 0 -57 -21q-14 -13 -19.5 -31t-5.5 -35q0 -30 11 -49q11 -18 49 -42l61 -37q23 -14 39.5 -29t26.5 -32
q11 -17 15 -37.5t4 -40.5z" />
    <glyph glyph-name="t" unicode="t" horiz-adv-x="235" 
d="M215 0q-29 0 -55 5.5t-47 26.5q-33 33 -33 95v344h-65v31h65v154h38v-154h92v-31h-92v-346q0 -49 25 -70t72 -21v-34z" />
    <glyph glyph-name="u" unicode="u" horiz-adv-x="357" 
d="M253 0v41q-4 -8 -12 -16.5t-14 -13.5q-12 -9 -26.5 -14t-33.5 -5q-45 0 -75 32q-15 15 -23 37.5t-8 57.5v383h38v-384q0 -46 22.5 -68.5t54.5 -22.5t54.5 22.5t22.5 68.5v384h38v-502h-38z" />
    <glyph glyph-name="v" unicode="v" horiz-adv-x="278" 
d="M159 0h-40l-115 502h42l93 -443l93 443h42z" />
    <glyph glyph-name="w" unicode="w" horiz-adv-x="437" 
d="M341 0h-44l-82 443l-77 -443h-44l-90 502h46l66 -443l77 443h44l82 -443l68 443h46z" />
    <glyph glyph-name="x" unicode="x" horiz-adv-x="296" 
d="M234 0l-86 226l-86 -226h-42l108 256l-102 246h42l80 -217l80 217h42l-104 -246l110 -256h-42z" />
    <glyph glyph-name="y" unicode="y" horiz-adv-x="281" 
d="M131 -110q-12 -52 -44.5 -76t-85.5 -24v34q44 0 64.5 19t28.5 50l27 109l-117 500h42l93 -442l93 442h42z" />
    <glyph glyph-name="z" unicode="z" horiz-adv-x="259" 
d="M20 0v31l179 437h-169v34h209v-31l-179 -437h179v-34h-219z" />
    <glyph glyph-name="braceleft" unicode="{" horiz-adv-x="270" 
d="M230 -74q-24 0 -46 9t-36 23q-15 15 -24 37.5t-9 57.5v195q0 46 -21.5 68.5t-53.5 22.5h-10v34h10q32 0 53.5 22.5t21.5 68.5v195q0 35 9 57.5t24 37.5q14 14 36 23t46 9h10v-34h-10q-32 0 -54.5 -22.5t-22.5 -68.5v-195q0 -35 -8 -57.5t-23 -37.5q-8 -8 -22 -15
q7 -2 12.5 -6.5t9.5 -8.5q15 -15 23 -37.5t8 -57.5v-195q0 -46 22.5 -68.5t54.5 -22.5h10v-34h-10z" />
    <glyph glyph-name="bar" unicode="|" horiz-adv-x="222" 
d="M92 -74v860h38v-860h-38z" />
    <glyph glyph-name="braceright" unicode="}" horiz-adv-x="270" 
d="M230 339q-32 0 -53.5 -22.5t-21.5 -68.5v-195q0 -35 -9 -57.5t-24 -37.5q-14 -14 -36 -23t-46 -9h-10v34h10q32 0 54.5 22.5t22.5 68.5v195q0 35 8 57.5t23 37.5q8 8 22 15q-7 2 -12.5 6.5t-9.5 8.5q-15 15 -23 37.5t-8 57.5v195q0 46 -22.5 68.5t-54.5 22.5h-10v34h10
q24 0 46 -9t36 -23q15 -15 24 -37.5t9 -57.5v-195q0 -46 21.5 -68.5t53.5 -22.5h10v-34h-10z" />
    <glyph glyph-name="asciitilde" unicode="~" horiz-adv-x="422" 
d="M367 282q-31 -31 -48.5 -40t-40.5 -9q-19 0 -38 7.5t-40 16.5q-17 7 -30 12.5t-28 5.5q-16 0 -28.5 -6t-35.5 -29l-23 23q31 31 49 40t40 9q19 0 38 -7.5t40 -16.5q17 -7 30 -12.5t28 -5.5q16 0 28.5 6t35.5 29z" />
    <glyph glyph-name="nonbreakingspace" unicode="&#xa0;" horiz-adv-x="200" 
 />
    <glyph glyph-name="exclamdown" unicode="&#xa1;" horiz-adv-x="216" 
d="M74 -210v530h38v-530h-38zM64 444v58h58v-58h-58z" />
    <glyph glyph-name="cent" unicode="&#xa2;" horiz-adv-x="324" 
d="M284 236q0 -35 -7 -58.5t-25 -40.5q-24 -24 -67 -29v-108h-32v108q-42 6 -67 33q-11 12 -18.5 29t-12 42.5t-6 60.5t-1.5 82t1.5 82t6 60.5t12 42.5t18.5 29q25 27 67 33v110h32v-110q41 -3 67 -27q22 -21 27 -46.5t5 -54.5h-37q0 20 -3 40t-19 36t-40 19v-428
q23 3 38 18q15 14 19.5 33t4.5 44h37zM153 568q-24 -5 -38 -20q-10 -10 -15.5 -25.5t-8.5 -38.5t-4 -54.5t-1 -74.5t1 -74.5t4 -54.5t8.5 -38t15.5 -26q14 -15 38 -20v426z" />
    <glyph glyph-name="sterling" unicode="&#xa3;" horiz-adv-x="369" 
d="M101 0v361h-65v31h65v182q0 37 11.5 64.5t30 45.5t43 27t50.5 9q29 0 56 -12t47 -35l-30 -25q-27 36 -73 36q-40 0 -67.5 -28.5t-27.5 -77.5v-186h94v-31h-94v-325h198v-36h-238z" />
    <glyph glyph-name="currency" unicode="&#xa4;" horiz-adv-x="430" 
d="M381 154q0 -41 -11 -75.5t-36 -56.5q-33 -30 -88 -30q-29 0 -53.5 9t-41.5 26q-14 14 -23 30t-14.5 42.5t-8.5 67.5t-4 105h-65v31h65v106h-65v31h65q1 65 4 106t8.5 67t14.5 42t23 30q17 17 41.5 26t53.5 9q32 0 54.5 -9t39.5 -26q22 -23 31.5 -56t9.5 -71h-40
q0 24 -4 46.5t-15 40t-29 28.5t-47 11q-44 0 -67 -25q-10 -11 -17 -24t-11.5 -36.5t-6.5 -61t-3 -97.5h143v-31h-143v-106h143v-31h-143q1 -60 3 -97.5t6.5 -61t11.5 -36.5t17 -24q23 -25 67 -25q29 0 47 11t29 28.5t15 40t4 46.5h40z" />
    <glyph glyph-name="yen" unicode="&#xa5;" horiz-adv-x="289" 
d="M193 402h49v-31h-58l-20 -66v-40h78v-31h-78v-234h-40v234h-78v31h78v40l-19 66h-59v31h49l-91 310h44l96 -341l97 341h44z" />
    <glyph glyph-name="brokenbar" unicode="&#xa6;" horiz-adv-x="222" 
d="M92 436v350h38v-350h-38zM92 -74v350h38v-350h-38z" />
    <glyph glyph-name="section" unicode="&#xa7;" horiz-adv-x="374" 
d="M310 272q0 -36 -2 -61.5t-6.5 -43.5t-11.5 -30t-17 -22q-23 -23 -64 -31q23 -14 41 -26.5t32 -35.5q9 -14 14 -35.5t5 -41.5q0 -26 -7.5 -49.5t-24.5 -40.5q-34 -35 -85 -35q-25 0 -46 9t-36 24q-18 18 -25.5 43.5t-7.5 48.5h38q0 -19 5.5 -37t19.5 -33q10 -11 24 -16
t28 -5q35 0 57 23t22 68q0 17 -3.5 33.5t-10.5 27.5q-10 16 -23 26t-29 20l-63 38q-9 5 -17.5 11t-15.5 13q-12 12 -19 25.5t-11 31.5t-5.5 42.5t-1.5 58.5q0 36 2 61t6 42.5t11.5 30t17.5 23.5q22 23 64 31q-23 13 -43.5 29.5t-31.5 36.5q-7 14 -11 30.5t-4 39.5
q0 52 35 85q31 31 80 31q26 0 44.5 -7t34.5 -23q17 -17 25.5 -42t8.5 -51h-38q0 18 -5 35.5t-19 32.5q-11 11 -24 16t-27 5q-33 0 -53 -20q-13 -12 -18.5 -28.5t-5.5 -33.5q0 -20 3.5 -34t8.5 -23q6 -11 18.5 -22.5t27.5 -20.5l64 -38q10 -6 20.5 -13.5t17.5 -14.5
q13 -13 20.5 -26t11 -31t4.5 -42t1 -59zM272 272q0 31 -1 52.5t-4 36.5t-8 26t-14 20q-22 24 -58 24q-34 0 -57 -23q-7 -8 -12.5 -17.5t-9 -24.5t-5 -37.5t-1.5 -56.5q0 -61 6 -90t22 -46q23 -23 57 -23q36 0 58 24q8 9 13.5 19.5t8.5 26t4 37t1 52.5z" />
    <glyph glyph-name="dieresis" unicode="&#xa8;" 
d="M206 609v50h50v-50h-50zM82 609v50h50v-50h-50z" />
    <glyph glyph-name="copyright" unicode="&#xa9;" horiz-adv-x="868" 
d="M796 356q0 -75 -28.5 -141t-77.5 -115t-115 -77.5t-141 -28.5t-141 28.5t-115 77.5t-77.5 115t-28.5 141t28.5 141t77.5 115t115 77.5t141 28.5t141 -28.5t115 -77.5t77.5 -115t28.5 -141zM760 356q0 67 -26 127t-70 105t-103.5 71.5t-126.5 26.5t-126.5 -26.5
t-103.5 -71.5t-70 -105t-26 -127t26 -127t70 -105t103.5 -71.5t126.5 -26.5t126.5 26.5t103.5 71.5t70 105t26 127zM525 260q0 -30 -6 -50t-20 -35q-24 -25 -65 -25q-20 0 -37.5 7.5t-28.5 20.5q-18 20 -24 59.5t-6 118.5t6 118.5t24 59.5q11 13 28.5 20.5t37.5 7.5
q41 0 65 -25q14 -15 20 -35t6 -50h-35q0 20 -3 36t-14 27q-15 16 -39 16q-14 0 -23.5 -5t-16.5 -13q-14 -17 -17.5 -52t-3.5 -105t3.5 -105t17.5 -52q7 -8 16.5 -13t23.5 -5q24 0 39 16q11 11 14 27t3 36h35z" />
    <glyph glyph-name="ordfeminine" unicode="&#xaa;" horiz-adv-x="284" 
d="M199 329v33q-5 -8 -11.5 -14.5t-10.5 -9.5q-9 -7 -21.5 -11t-29.5 -4q-34 0 -61 25q-11 11 -20 31.5t-9 53.5q0 29 10.5 50.5t27.5 37.5q27 24 74 24h49v70q0 30 -15 51t-47 21q-25 0 -42 -17q-13 -14 -16 -29.5t-3 -32.5h-33q0 23 5.5 44.5t22.5 38.5q25 25 66 25
q42 0 68 -26q13 -13 20 -31.5t7 -45.5v-284h-31zM197 517h-52q-17 0 -29 -4.5t-20 -12.5q-12 -11 -19.5 -27.5t-7.5 -38.5q0 -15 3 -29.5t10.5 -26.5t20 -19t30.5 -7q29 0 46.5 24t17.5 59v82z" />
    <glyph glyph-name="guillemotleft" unicode="&#xab;" horiz-adv-x="355" 
d="M170 265l127 196v-73l-81 -123l81 -123v-73zM30 265l127 196v-73l-81 -123l81 -123v-73z" />
    <glyph glyph-name="logicalnot" unicode="&#xac;" horiz-adv-x="422" 
d="M336 154v101h-286v36h322v-137h-36z" />
    <glyph glyph-name="registered" unicode="&#xae;" horiz-adv-x="868" 
d="M796 356q0 -75 -28.5 -141t-77.5 -115t-115 -77.5t-141 -28.5t-141 28.5t-115 77.5t-77.5 115t-28.5 141t28.5 141t77.5 115t115 77.5t141 28.5t141 -28.5t115 -77.5t77.5 -115t28.5 -141zM760 356q0 67 -26 127t-70 105t-103.5 71.5t-126.5 26.5t-126.5 -26.5
t-103.5 -71.5t-70 -105t-26 -127t26 -127t70 -105t103.5 -71.5t126.5 -26.5t126.5 26.5t103.5 71.5t70 105t26 127zM506 156l-56 180h-67v-180h-35v401h96q18 0 34 -5.5t27 -16.5q17 -16 21.5 -36t4.5 -53q0 -38 -5.5 -56t-21.5 -33q-10 -10 -21 -14l60 -187h-37zM496 446
q0 26 -2.5 40t-13.5 25q-14 14 -35 14h-62v-158h62q21 0 35 14q11 11 13.5 25t2.5 40z" />
    <glyph glyph-name="macron" unicode="&#xaf;" 
d="M69 614v35h200v-35h-200z" />
    <glyph glyph-name="degree" unicode="&#xb0;" horiz-adv-x="372" 
d="M312 592q0 -26 -10 -49t-27 -40t-40 -27t-49 -10t-49 10t-40 27t-27 40t-10 49t10 49t27 40t40 27t49 10t49 -10t40 -27t27 -40t10 -49zM278 592q0 40 -26 67t-66 27t-66 -26.5t-26 -67.5t26 -67.5t66 -26.5t66 26.5t26 67.5z" />
    <glyph glyph-name="plusminus" unicode="&#xb1;" horiz-adv-x="422" 
d="M229 275v-143h-36v143h-143v36h143v143h36v-143h143v-36h-143zM50 44v36h322v-36h-322z" />
    <glyph glyph-name="twosuperior" unicode="&#xb2;" horiz-adv-x="318" 
d="M62 285v26l138 227q13 21 18.5 38.5t5.5 43.5q0 29 -17.5 48t-48.5 19q-35 0 -49.5 -21t-14.5 -58v-13h-32v13q0 29 5.5 48.5t19.5 33.5q27 27 71 27q25 0 40.5 -6t29.5 -18t21 -31t7 -42q0 -26 -6.5 -49t-23.5 -50l-126 -209h156v-27h-194z" />
    <glyph glyph-name="threesuperior" unicode="&#xb3;" horiz-adv-x="318" 
d="M250 397q0 -38 -6.5 -57t-21.5 -34q-11 -12 -30 -19t-41 -7q-47 0 -74 27q-11 12 -17 30t-6 57v10h33v-10q0 -30 3.5 -44t14.5 -24q18 -16 46 -16q14 0 26 4t20 12q10 10 15.5 26t5.5 45q0 32 -4.5 46.5t-13.5 25.5q-18 21 -49 21h-30v30h30q14 0 24.5 4.5t19.5 12.5
q16 14 18.5 33t2.5 38q0 20 -4.5 36.5t-16.5 27.5q-15 15 -44 15q-30 0 -47 -17q-10 -10 -13.5 -26t-3.5 -36v-10h-33v10q0 33 6 51.5t18 30.5q13 13 30 20t43 7t43 -7.5t28 -18.5q26 -27 26 -83q0 -28 -4.5 -44.5t-15.5 -29.5q-18 -21 -41 -29q27 -6 45 -32
q9 -12 13.5 -29.5t4.5 -46.5z" />
    <glyph glyph-name="acute" unicode="&#xb4;" 
d="M188 586h-40l63 126h47z" />
    <glyph glyph-name="mu" unicode="&#xb5;" horiz-adv-x="362" 
d="M258 0v41q-4 -8 -12 -16.5t-14 -13.5q-13 -9 -27 -14t-33 -5q-23 0 -42 8.5t-26 17.5v-229h-38v713h38v-385q0 -46 22.5 -68.5t54.5 -22.5t54.5 22.5t22.5 68.5v385h38v-502h-38z" />
    <glyph glyph-name="paragraph" unicode="&#xb6;" horiz-adv-x="515" 
d="M411 -211v889h-128v-889h-38v525h-57q-64 0 -101 46t-37 153t37 153t101 46h261v-923h-38z" />
    <glyph glyph-name="periodcentered" unicode="&#xb7;" horiz-adv-x="254" 
d="M72 253v110h110v-110h-110z" />
    <glyph glyph-name="cedilla" unicode="&#xb8;" 
d="M153 -162h-45l50 126h38z" />
    <glyph glyph-name="onesuperior" unicode="&#xb9;" horiz-adv-x="318" 
d="M148 285v389l-66 -47v37l67 48h31v-427h-32z" />
    <glyph glyph-name="ordmasculine" unicode="&#xba;" horiz-adv-x="284" 
d="M239 519q0 -75 -6.5 -113t-24.5 -57q-11 -12 -27 -19t-39 -7t-39 7t-27 19q-18 19 -24.5 57t-6.5 113t6.5 113t24.5 57q11 12 27 19t39 7t39 -7t27 -19q18 -19 24.5 -57t6.5 -113zM206 519q0 67 -4 100t-19 50t-41 17t-41 -17t-19 -50t-4 -100t4 -100t19 -50t41 -17
t41 17t19 50t4 100z" />
    <glyph glyph-name="guillemotright" unicode="&#xbb;" horiz-adv-x="355" 
d="M198 69v73l81 123l-81 123v73l127 -196zM58 69v73l81 123l-81 123v73l127 -196z" />
    <glyph glyph-name="onequarter" unicode="&#xbc;" horiz-adv-x="806" 
d="M275 0h-34l248 712h34zM700 64v-64h-32v64h-149v30l131 333h32l-131 -333h117v115h32v-115h30v-30h-30zM148 285v389l-66 -47v37l67 48h31v-427h-32z" />
    <glyph glyph-name="onehalf" unicode="&#xbd;" horiz-adv-x="806" 
d="M551 0v26l138 227q13 21 18.5 38.5t5.5 43.5q0 29 -17.5 48t-48.5 19q-35 0 -49.5 -21t-14.5 -58v-13h-32v13q0 29 5.5 48.5t19.5 33.5q27 27 71 27q25 0 40.5 -6t29.5 -18t21 -31t7 -42q0 -26 -6.5 -49t-23.5 -50l-126 -209h156v-27h-194zM275 0h-34l248 712h34z
M148 285v389l-66 -47v37l67 48h31v-427h-32z" />
    <glyph glyph-name="threequarters" unicode="&#xbe;" horiz-adv-x="806" 
d="M250 397q0 -38 -6.5 -57t-21.5 -34q-11 -12 -30 -19t-41 -7q-47 0 -74 27q-11 12 -17 30t-6 57v10h33v-10q0 -30 3.5 -44t14.5 -24q18 -16 46 -16q14 0 26 4t20 12q10 10 15.5 26t5.5 45q0 32 -4.5 46.5t-13.5 25.5q-18 21 -49 21h-30v30h30q14 0 24.5 4.5t19.5 12.5
q16 14 18.5 33t2.5 38q0 20 -4.5 36.5t-16.5 27.5q-15 15 -44 15q-30 0 -47 -17q-10 -10 -13.5 -26t-3.5 -36v-10h-33v10q0 33 6 51.5t18 30.5q13 13 30 20t43 7t43 -7.5t28 -18.5q26 -27 26 -83q0 -28 -4.5 -44.5t-15.5 -29.5q-18 -21 -41 -29q27 -6 45 -32
q9 -12 13.5 -29.5t4.5 -46.5zM275 0h-34l248 712h34zM700 64v-64h-32v64h-149v30l131 333h32l-131 -333h117v115h32v-115h30v-30h-30z" />
    <glyph glyph-name="questiondown" unicode="&#xbf;" horiz-adv-x="356" 
d="M298 -72q0 -35 -7.5 -62.5t-28.5 -47.5q-34 -34 -88 -34q-27 0 -49.5 7.5t-40.5 26.5t-28 45.5t-10 83.5q0 33 4.5 57.5t22.5 54.5l58 98q11 19 16 37.5t5 39.5v86h38v-91q0 -43 -22 -81l-58 -98q-17 -28 -21.5 -50t-4.5 -53q0 -46 8.5 -68.5t22.5 -37.5q11 -11 25 -17
t34 -6t33.5 6t24.5 16q17 17 22.5 41t5.5 47h38zM142 444v58h58v-58h-58z" />
    <glyph glyph-name="Agrave" unicode="&#xc0;" horiz-adv-x="347" 
d="M299 0l-43 214h-166l-42 -214h-44l153 712h36l150 -712h-44zM173 630l-75 -380h151zM156 766l-70 126h47l63 -126h-40z" />
    <glyph glyph-name="Aacute" unicode="&#xc1;" horiz-adv-x="347" 
d="M299 0l-43 214h-166l-42 -214h-44l153 712h36l150 -712h-44zM173 630l-75 -380h151zM194 766h-40l63 126h47z" />
    <glyph glyph-name="Acircumflex" unicode="&#xc2;" horiz-adv-x="347" 
d="M299 0l-43 214h-166l-42 -214h-44l153 712h36l150 -712h-44zM173 630l-75 -380h151zM235 766l-60 95l-60 -95h-41l82 126h38l82 -126h-41z" />
    <glyph glyph-name="Atilde" unicode="&#xc3;" horiz-adv-x="347" 
d="M299 0l-43 214h-166l-42 -214h-44l153 712h36l150 -712h-44zM173 630l-75 -380h151zM285 813q-25 -25 -39.5 -30t-24.5 -5q-15 0 -27 5t-24 12q-11 6 -20.5 11t-20.5 5q-9 0 -17 -3.5t-25 -20.5l-22 22q25 25 39 30t25 5q16 0 27 -4.5t24 -12.5q11 -7 20.5 -11.5
t20.5 -4.5q8 0 16.5 3.5t25.5 20.5z" />
    <glyph glyph-name="Adieresis" unicode="&#xc4;" horiz-adv-x="347" 
d="M299 0l-43 214h-166l-42 -214h-44l153 712h36l150 -712h-44zM173 630l-75 -380h151zM212 789v50h50v-50h-50zM88 789v50h50v-50h-50z" />
    <glyph glyph-name="Aring" unicode="&#xc5;" horiz-adv-x="347" 
d="M299 0l-43 214h-166l-42 -214h-44l153 712h36l150 -712h-44zM173 630l-75 -380h151zM261 836q0 -35 -25.5 -60.5t-60.5 -25.5t-60.5 25.5t-25.5 60.5t25.5 60.5t60.5 25.5t60.5 -25.5t25.5 -60.5zM230 836q0 23 -16 39t-39 16t-39 -16t-16 -39t16 -39t39 -16t39 16t16 39
z" />
    <glyph glyph-name="AE" unicode="&#xc6;" horiz-adv-x="579" 
d="M299 0v214h-172l-79 -214h-43l266 712h258v-36h-190v-302h164v-36h-164v-302h190v-36h-230zM299 677l-158 -427h158v427z" />
    <glyph glyph-name="Ccedilla" unicode="&#xc7;" horiz-adv-x="382" 
d="M338 154q0 -41 -11 -75.5t-36 -56.5q-33 -30 -88 -30q-29 0 -53.5 9t-41.5 26q-16 16 -25.5 35t-15 53.5t-7.5 91.5t-2 149t2 149t7.5 91.5t15 53.5t25.5 35q17 17 41.5 26t53.5 9q32 0 54.5 -9t39.5 -26q22 -23 31.5 -56t9.5 -71h-40q0 29 -7 57t-25 46q-23 23 -63 23
q-44 0 -67 -25q-12 -13 -19.5 -28.5t-11.5 -47t-5.5 -85t-1.5 -142.5t1.5 -142.5t5.5 -85t11.5 -47t19.5 -28.5q23 -25 67 -25q21 0 36.5 6t26.5 17q18 18 25 46t7 57h40zM182 -162h-45l50 126h38z" />
    <glyph glyph-name="Egrave" unicode="&#xc8;" horiz-adv-x="352" 
d="M72 0v712h230v-36h-190v-302h164v-36h-164v-302h190v-36h-230zM172 766l-70 126h47l63 -126h-40z" />
    <glyph glyph-name="Eacute" unicode="&#xc9;" horiz-adv-x="352" 
d="M72 0v712h230v-36h-190v-302h164v-36h-164v-302h190v-36h-230zM210 766h-40l63 126h47z" />
    <glyph glyph-name="Ecircumflex" unicode="&#xca;" horiz-adv-x="352" 
d="M72 0v712h230v-36h-190v-302h164v-36h-164v-302h190v-36h-230zM251 766l-60 95l-60 -95h-41l82 126h38l82 -126h-41z" />
    <glyph glyph-name="Edieresis" unicode="&#xcb;" horiz-adv-x="352" 
d="M72 0v712h230v-36h-190v-302h164v-36h-164v-302h190v-36h-230zM228 789v50h50v-50h-50zM104 789v50h50v-50h-50z" />
    <glyph glyph-name="Igrave" unicode="&#xcc;" horiz-adv-x="184" 
d="M72 0v712h40v-712h-40zM72 766l-70 126h47l63 -126h-40z" />
    <glyph glyph-name="Iacute" unicode="&#xcd;" horiz-adv-x="184" 
d="M72 0v712h40v-712h-40zM115 766h-40l63 126h47z" />
    <glyph glyph-name="Icircumflex" unicode="&#xce;" horiz-adv-x="184" 
d="M72 0v712h40v-712h-40zM152 766l-60 95l-60 -95h-41l82 126h38l82 -126h-41z" />
    <glyph glyph-name="Idieresis" unicode="&#xcf;" horiz-adv-x="184" 
d="M72 0v712h40v-712h-40zM129 789v50h50v-50h-50zM5 789v50h50v-50h-50z" />
    <glyph glyph-name="Eth" unicode="&#xd0;" horiz-adv-x="407" 
d="M349 356q0 -91 -1.5 -146.5t-7 -89.5t-15 -52t-25.5 -34q-34 -34 -94 -34h-134v338h-54v36h54v338h134q60 0 94 -34q16 -16 25.5 -34t15 -52t7 -89.5t1.5 -146.5zM309 356q0 87 -1.5 139.5t-5.5 83.5t-11.5 46t-20.5 28q-23 23 -67 23h-91v-302h98v-36h-98v-302h91
q44 0 67 23q13 13 20.5 28.5t11.5 46t5.5 83t1.5 139.5z" />
    <glyph glyph-name="Ntilde" unicode="&#xd1;" horiz-adv-x="438" 
d="M322 0l-210 602v-602h-40v712h44l211 -602l-1 602h40v-712h-44zM333 813q-25 -25 -39.5 -30t-24.5 -5q-15 0 -27 5t-24 12q-11 6 -20.5 11t-20.5 5q-9 0 -17 -3.5t-25 -20.5l-22 22q25 25 39 30t25 5q16 0 27 -4.5t24 -12.5q11 -7 20.5 -11.5t20.5 -4.5q8 0 16.5 3.5
t25.5 20.5z" />
    <glyph glyph-name="Ograve" unicode="&#xd2;" horiz-adv-x="406" 
d="M348 356q0 -92 -2 -149t-7.5 -91.5t-15 -53.5t-25.5 -35q-17 -17 -41.5 -26t-53.5 -9t-53.5 9t-41.5 26q-16 16 -25.5 35t-15 53.5t-7.5 91.5t-2 149t2 149t7.5 91.5t15 53.5t25.5 35q17 17 41.5 26t53.5 9t53.5 -9t41.5 -26q16 -16 25.5 -35t15 -53.5t7.5 -91.5t2 -149z
M308 356q0 89 -1.5 142.5t-5.5 85t-11.5 47t-19.5 28.5q-23 25 -67 25t-67 -25q-12 -13 -19.5 -28.5t-11.5 -47t-5.5 -85t-1.5 -142.5t1.5 -142.5t5.5 -85t11.5 -47t19.5 -28.5q23 -25 67 -25t67 25q12 13 19.5 28.5t11.5 47t5.5 85t1.5 142.5zM186 766l-70 126h47l63 -126
h-40z" />
    <glyph glyph-name="Oacute" unicode="&#xd3;" horiz-adv-x="406" 
d="M348 356q0 -92 -2 -149t-7.5 -91.5t-15 -53.5t-25.5 -35q-17 -17 -41.5 -26t-53.5 -9t-53.5 9t-41.5 26q-16 16 -25.5 35t-15 53.5t-7.5 91.5t-2 149t2 149t7.5 91.5t15 53.5t25.5 35q17 17 41.5 26t53.5 9t53.5 -9t41.5 -26q16 -16 25.5 -35t15 -53.5t7.5 -91.5t2 -149z
M308 356q0 89 -1.5 142.5t-5.5 85t-11.5 47t-19.5 28.5q-23 25 -67 25t-67 -25q-12 -13 -19.5 -28.5t-11.5 -47t-5.5 -85t-1.5 -142.5t1.5 -142.5t5.5 -85t11.5 -47t19.5 -28.5q23 -25 67 -25t67 25q12 13 19.5 28.5t11.5 47t5.5 85t1.5 142.5zM222 766h-40l63 126h47z" />
    <glyph glyph-name="Ocircumflex" unicode="&#xd4;" horiz-adv-x="406" 
d="M348 356q0 -92 -2 -149t-7.5 -91.5t-15 -53.5t-25.5 -35q-17 -17 -41.5 -26t-53.5 -9t-53.5 9t-41.5 26q-16 16 -25.5 35t-15 53.5t-7.5 91.5t-2 149t2 149t7.5 91.5t15 53.5t25.5 35q17 17 41.5 26t53.5 9t53.5 -9t41.5 -26q16 -16 25.5 -35t15 -53.5t7.5 -91.5t2 -149z
M308 356q0 89 -1.5 142.5t-5.5 85t-11.5 47t-19.5 28.5q-23 25 -67 25t-67 -25q-12 -13 -19.5 -28.5t-11.5 -47t-5.5 -85t-1.5 -142.5t1.5 -142.5t5.5 -85t11.5 -47t19.5 -28.5q23 -25 67 -25t67 25q12 13 19.5 28.5t11.5 47t5.5 85t1.5 142.5zM264 766l-60 95l-60 -95h-41
l82 126h38l82 -126h-41z" />
    <glyph glyph-name="Otilde" unicode="&#xd5;" horiz-adv-x="406" 
d="M348 356q0 -92 -2 -149t-7.5 -91.5t-15 -53.5t-25.5 -35q-17 -17 -41.5 -26t-53.5 -9t-53.5 9t-41.5 26q-16 16 -25.5 35t-15 53.5t-7.5 91.5t-2 149t2 149t7.5 91.5t15 53.5t25.5 35q17 17 41.5 26t53.5 9t53.5 -9t41.5 -26q16 -16 25.5 -35t15 -53.5t7.5 -91.5t2 -149z
M308 356q0 89 -1.5 142.5t-5.5 85t-11.5 47t-19.5 28.5q-23 25 -67 25t-67 -25q-12 -13 -19.5 -28.5t-11.5 -47t-5.5 -85t-1.5 -142.5t1.5 -142.5t5.5 -85t11.5 -47t19.5 -28.5q23 -25 67 -25t67 25q12 13 19.5 28.5t11.5 47t5.5 85t1.5 142.5zM312 813q-25 -25 -39.5 -30
t-24.5 -5q-15 0 -27 5t-24 12q-11 6 -20.5 11t-20.5 5q-9 0 -17 -3.5t-25 -20.5l-22 22q25 25 39 30t25 5q16 0 27 -4.5t24 -12.5q11 -7 20.5 -11.5t20.5 -4.5q8 0 16.5 3.5t25.5 20.5z" />
    <glyph glyph-name="Odieresis" unicode="&#xd6;" horiz-adv-x="406" 
d="M348 356q0 -92 -2 -149t-7.5 -91.5t-15 -53.5t-25.5 -35q-17 -17 -41.5 -26t-53.5 -9t-53.5 9t-41.5 26q-16 16 -25.5 35t-15 53.5t-7.5 91.5t-2 149t2 149t7.5 91.5t15 53.5t25.5 35q17 17 41.5 26t53.5 9t53.5 -9t41.5 -26q16 -16 25.5 -35t15 -53.5t7.5 -91.5t2 -149z
M308 356q0 89 -1.5 142.5t-5.5 85t-11.5 47t-19.5 28.5q-23 25 -67 25t-67 -25q-12 -13 -19.5 -28.5t-11.5 -47t-5.5 -85t-1.5 -142.5t1.5 -142.5t5.5 -85t11.5 -47t19.5 -28.5q23 -25 67 -25t67 25q12 13 19.5 28.5t11.5 47t5.5 85t1.5 142.5zM240 789v50h50v-50h-50z
M116 789v50h50v-50h-50z" />
    <glyph glyph-name="multiply" unicode="&#xd7;" horiz-adv-x="422" 
d="M329 120l-118 118l-118 -118l-25 25l118 118l-118 118l25 25l118 -118l118 118l25 -25l-118 -118l118 -118z" />
    <glyph glyph-name="Oslash" unicode="&#xd8;" horiz-adv-x="386" 
d="M348 356q0 -92 -2 -149t-7.5 -91.5t-15 -53.5t-25.5 -35q-17 -17 -41.5 -26t-53.5 -9q-45 0 -77 21l-16 -57h-41l26 86q-12 15 -19 35.5t-11 55t-5.5 88t-1.5 135.5q0 92 2 149t7.5 91.5t15 53.5t25.5 35q17 17 41.5 26t53.5 9q46 0 77 -21l16 57h41l-25 -87
q11 -15 18 -35.5t11 -55t5.5 -88t1.5 -134.5zM269 660q-22 24 -66 24t-67 -25q-12 -13 -19.5 -28.5t-11.5 -47t-5.5 -85t-1.5 -142.5q0 -60 0.5 -103t2 -73.5t4.5 -51t7 -34.5zM308 356q0 58 -0.5 100.5t-2 73.5t-4 51.5t-6.5 34.5l-158 -564q23 -24 66 -24q44 0 67 25
q12 13 19.5 28.5t11.5 47t5.5 85t1.5 142.5z" />
    <glyph glyph-name="Ugrave" unicode="&#xd9;" horiz-adv-x="398" 
d="M336 138q0 -37 -10.5 -64t-29.5 -45q-19 -19 -44 -28t-51 -9t-51 9t-44 28q-19 18 -29.5 45t-10.5 64v574h40v-578q0 -49 27.5 -77.5t67.5 -28.5t67.5 28.5t27.5 77.5v578h40v-574zM186 766l-70 126h47l63 -126h-40z" />
    <glyph glyph-name="Uacute" unicode="&#xda;" horiz-adv-x="398" 
d="M334 138q0 -37 -10.5 -64t-29.5 -45q-19 -19 -44 -28t-51 -9t-51 9t-44 28q-19 18 -29.5 45t-10.5 64v574h40v-578q0 -49 27.5 -77.5t67.5 -28.5t67.5 28.5t27.5 77.5v578h40v-574zM223 766h-40l63 126h47z" />
    <glyph glyph-name="Ucircumflex" unicode="&#xdb;" horiz-adv-x="398" 
d="M336 138q0 -37 -10.5 -64t-29.5 -45q-19 -19 -44 -28t-51 -9t-51 9t-44 28q-19 18 -29.5 45t-10.5 64v574h40v-578q0 -49 27.5 -77.5t67.5 -28.5t67.5 28.5t27.5 77.5v578h40v-574zM265 766l-60 95l-60 -95h-41l82 126h38l82 -126h-41z" />
    <glyph glyph-name="Udieresis" unicode="&#xdc;" horiz-adv-x="398" 
d="M334 138q0 -37 -10.5 -64t-29.5 -45q-19 -19 -44 -28t-51 -9t-51 9t-44 28q-19 18 -29.5 45t-10.5 64v574h40v-578q0 -49 27.5 -77.5t67.5 -28.5t67.5 28.5t27.5 77.5v578h40v-574zM240 789v50h50v-50h-50zM116 789v50h50v-50h-50z" />
    <glyph glyph-name="Yacute" unicode="&#xdd;" horiz-adv-x="289" 
d="M164 305v-305h-40v305l-120 407h44l96 -341l97 341h44zM166 766h-40l63 126h47z" />
    <glyph glyph-name="Thorn" unicode="&#xde;" horiz-adv-x="391" 
d="M342 359q0 -57 -10 -94t-28.5 -59t-45.5 -30.5t-60 -8.5h-86v-167h-40v712h40v-161h86q26 0 52 -5.5t46.5 -25.5t33 -58t12.5 -103zM302 359q0 78 -22 117t-79 39h-89v-312h89q57 0 79 39t22 117z" />
    <glyph glyph-name="germandbls" unicode="&#xdf;" horiz-adv-x="357" 
d="M309 228q0 -79 -5.5 -124.5t-31.5 -71.5q-19 -19 -42 -25.5t-49 -6.5v34q42 0 63 23q8 8 13 20t8 31.5t4.5 48.5t1.5 71q0 77 -5.5 115.5t-21.5 55.5q-21 22 -54 22h-9v34h7q27 0 45 20q19 20 23 46.5t4 52.5q0 35 -5.5 55t-19.5 35q-21 22 -54 22q-32 0 -54.5 -22.5
t-22.5 -68.5v-595h-38v593q0 35 9 57.5t24 37.5q14 14 36 23t46 9t46 -9t36 -23q21 -21 28 -45t7 -69q0 -25 -3.5 -51t-16.5 -48q-12 -20 -33 -33q15 -7 27 -19q11 -10 18 -23.5t11 -35t6 -54t2 -82.5z" />
    <glyph glyph-name="agrave" unicode="&#xe0;" horiz-adv-x="335" 
d="M236 0v47q-5 -11 -13 -20t-13 -14q-12 -10 -26.5 -15.5t-35.5 -5.5q-44 0 -74 30q-14 14 -24 43t-10 71q0 36 10.5 65.5t30.5 48.5q19 17 40.5 25t52.5 8h62v98q0 47 -19 71.5t-58 24.5q-30 0 -50 -20q-14 -14 -19.5 -32t-5.5 -47h-38q0 28 7 54.5t27 46.5q15 15 34 23
t45 8q29 0 49 -7.5t34 -21.5q17 -17 24.5 -40.5t7.5 -58.5v-382h-38zM236 251h-64q-39 0 -64 -24q-14 -14 -22 -38t-8 -53q0 -50 18 -80t59 -30q38 0 59.5 29t21.5 71v125zM144 586l-70 126h47l63 -126h-40z" />
    <glyph glyph-name="aacute" unicode="&#xe1;" horiz-adv-x="335" 
d="M236 0v47q-5 -11 -13 -20t-13 -14q-12 -10 -26.5 -15.5t-35.5 -5.5q-44 0 -74 30q-14 14 -24 43t-10 71q0 36 10.5 65.5t30.5 48.5q19 17 40.5 25t52.5 8h62v98q0 47 -19 71.5t-58 24.5q-30 0 -50 -20q-14 -14 -19.5 -32t-5.5 -47h-38q0 28 7 54.5t27 46.5q15 15 34 23
t45 8q29 0 49 -7.5t34 -21.5q17 -17 24.5 -40.5t7.5 -58.5v-382h-38zM236 251h-64q-39 0 -64 -24q-14 -14 -22 -38t-8 -53q0 -50 18 -80t59 -30q38 0 59.5 29t21.5 71v125zM182 586h-40l63 126h47z" />
    <glyph glyph-name="acircumflex" unicode="&#xe2;" horiz-adv-x="335" 
d="M236 0v47q-5 -11 -13 -20t-13 -14q-12 -10 -26.5 -15.5t-35.5 -5.5q-44 0 -74 30q-14 14 -24 43t-10 71q0 36 10.5 65.5t30.5 48.5q19 17 40.5 25t52.5 8h62v98q0 47 -19 71.5t-58 24.5q-30 0 -50 -20q-14 -14 -19.5 -32t-5.5 -47h-38q0 28 7 54.5t27 46.5q15 15 34 23
t45 8q29 0 49 -7.5t34 -21.5q17 -17 24.5 -40.5t7.5 -58.5v-382h-38zM236 251h-64q-39 0 -64 -24q-14 -14 -22 -38t-8 -53q0 -50 18 -80t59 -30q38 0 59.5 29t21.5 71v125zM223 586l-60 95l-60 -95h-41l82 126h38l82 -126h-41z" />
    <glyph glyph-name="atilde" unicode="&#xe3;" horiz-adv-x="335" 
d="M236 0v47q-5 -11 -13 -20t-13 -14q-12 -10 -26.5 -15.5t-35.5 -5.5q-44 0 -74 30q-14 14 -24 43t-10 71q0 36 10.5 65.5t30.5 48.5q19 17 40.5 25t52.5 8h62v98q0 47 -19 71.5t-58 24.5q-30 0 -50 -20q-14 -14 -19.5 -32t-5.5 -47h-38q0 28 7 54.5t27 46.5q15 15 34 23
t45 8q29 0 49 -7.5t34 -21.5q17 -17 24.5 -40.5t7.5 -58.5v-382h-38zM236 251h-64q-39 0 -64 -24q-14 -14 -22 -38t-8 -53q0 -50 18 -80t59 -30q38 0 59.5 29t21.5 71v125zM273 633q-25 -25 -39.5 -30t-24.5 -5q-15 0 -27 5t-24 12q-11 6 -20.5 11t-20.5 5q-9 0 -17 -3.5
t-25 -20.5l-22 22q25 25 39 30t25 5q16 0 27 -4.5t24 -12.5q11 -7 20.5 -11.5t20.5 -4.5q8 0 16.5 3.5t25.5 20.5z" />
    <glyph glyph-name="adieresis" unicode="&#xe4;" horiz-adv-x="335" 
d="M236 0v47q-5 -11 -13 -20t-13 -14q-12 -10 -26.5 -15.5t-35.5 -5.5q-44 0 -74 30q-14 14 -24 43t-10 71q0 36 10.5 65.5t30.5 48.5q19 17 40.5 25t52.5 8h62v98q0 47 -19 71.5t-58 24.5q-30 0 -50 -20q-14 -14 -19.5 -32t-5.5 -47h-38q0 28 7 54.5t27 46.5q15 15 34 23
t45 8q29 0 49 -7.5t34 -21.5q17 -17 24.5 -40.5t7.5 -58.5v-382h-38zM236 251h-64q-39 0 -64 -24q-14 -14 -22 -38t-8 -53q0 -50 18 -80t59 -30q38 0 59.5 29t21.5 71v125zM200 609v50h50v-50h-50zM76 609v50h50v-50h-50z" />
    <glyph glyph-name="aring" unicode="&#xe5;" horiz-adv-x="335" 
d="M236 0v47q-5 -11 -13 -20t-13 -14q-12 -10 -26.5 -15.5t-35.5 -5.5q-44 0 -74 30q-14 14 -24 43t-10 71q0 36 10.5 65.5t30.5 48.5q19 17 40.5 25t52.5 8h62v98q0 47 -19 71.5t-58 24.5q-30 0 -50 -20q-14 -14 -19.5 -32t-5.5 -47h-38q0 28 7 54.5t27 46.5q15 15 34 23
t45 8q29 0 49 -7.5t34 -21.5q17 -17 24.5 -40.5t7.5 -58.5v-382h-38zM236 251h-64q-39 0 -64 -24q-14 -14 -22 -38t-8 -53q0 -50 18 -80t59 -30q38 0 59.5 29t21.5 71v125zM249 666q0 -35 -25.5 -60.5t-60.5 -25.5t-60.5 25.5t-25.5 60.5t25.5 60.5t60.5 25.5t60.5 -25.5
t25.5 -60.5zM218 666q0 23 -16 39t-39 16t-39 -16t-16 -39t16 -39t39 -16t39 16t16 39z" />
    <glyph glyph-name="ae" unicode="&#xe6;" horiz-adv-x="523" 
d="M274 251q0 -45 1 -78t4 -57t9 -40t16 -27q9 -10 23 -16.5t32 -6.5q15 0 29.5 4.5t25.5 15.5q26 25 26 81h37q0 -38 -8.5 -61t-26.5 -42q-16 -16 -37.5 -24t-45.5 -8q-26 0 -46 8.5t-34 22.5q-8 9 -15.5 21.5t-11.5 23.5q-5 -16 -14 -30t-20 -22q-13 -10 -30 -17t-40 -7
q-44 0 -74 30q-14 14 -24 43t-10 71q0 36 10.5 65.5t30.5 48.5q19 17 40.5 25t52.5 8h62v98q0 47 -19 71.5t-58 24.5q-30 0 -50 -20q-14 -14 -19.5 -32t-5.5 -47h-38q0 28 7 54.5t27 46.5q15 15 34 23t45 8q29 0 49 -7.5t34 -21.5q12 -13 18 -26q3 6 6.5 10.5t7.5 9.5
q14 16 34.5 25.5t48.5 9.5t48.5 -9.5t34.5 -25.5q11 -12 18.5 -30.5t12 -45t6 -63t1.5 -85.5h-204zM236 251h-64q-39 0 -64 -24q-14 -14 -22 -38t-8 -53q0 -50 18 -80t59 -30q38 0 59.5 29t21.5 71v125zM440 283q-1 74 -6 112t-23 58q-9 10 -22.5 16.5t-31.5 6.5t-31.5 -6.5
t-22.5 -16.5q-18 -20 -23 -58t-6 -112h166z" />
    <glyph glyph-name="ccedilla" unicode="&#xe7;" horiz-adv-x="324" 
d="M284 127q0 -36 -7 -60.5t-25 -43.5q-31 -31 -83 -31q-26 0 -47.5 9.5t-35.5 25.5q-11 12 -18.5 30.5t-12 45t-6 63t-1.5 85.5t1.5 85.5t6 63t12 45t18.5 30.5q14 16 35.5 25.5t47.5 9.5q54 0 83 -29q22 -22 27 -49.5t5 -56.5h-37q0 22 -3 42.5t-19 37.5q-20 21 -55 21
q-18 0 -32 -6.5t-23 -16.5q-10 -11 -15.5 -27t-8.5 -40t-4 -57t-1 -78t1 -78t4 -57t8.5 -40t15.5 -27q9 -10 23 -16.5t32 -6.5q15 0 28.5 4.5t24.5 15.5q15 15 19.5 35t4.5 46h37zM153 -162h-45l50 126h38z" />
    <glyph glyph-name="egrave" unicode="&#xe8;" 
d="M118 251q0 -45 1 -78t4 -57t9 -40t16 -27q9 -10 23 -16.5t32 -6.5q15 0 29.5 4.5t25.5 15.5q26 25 26 81h37q0 -38 -8.5 -61t-26.5 -42q-16 -16 -37.5 -24t-45.5 -8q-28 0 -49 9.5t-35 25.5q-11 12 -18.5 30.5t-12 45t-6.5 63t-2 85.5t1.5 85.5t6 63t12 45t18.5 30.5
q14 16 34.5 25.5t48.5 9.5t48.5 -9.5t34.5 -25.5q11 -12 18.5 -30.5t12 -45t6 -63t1.5 -85.5h-204zM284 283q-1 74 -6 112t-23 58q-9 10 -22.5 16.5t-31.5 6.5t-31.5 -6.5t-22.5 -16.5q-18 -20 -23 -58t-6 -112h166zM187 586l-70 126h47l63 -126h-40z" />
    <glyph glyph-name="eacute" unicode="&#xe9;" horiz-adv-x="333" 
d="M86 251q0 -45 1 -78t4 -57t9 -40t16 -27q9 -10 23 -16.5t32 -6.5q15 0 29.5 4.5t25.5 15.5q26 25 26 81h37q0 -38 -8.5 -61t-26.5 -42q-16 -16 -37.5 -24t-45.5 -8q-28 0 -49 9.5t-35 25.5q-11 12 -18.5 30.5t-12 45t-6.5 63t-2 85.5t1.5 85.5t6 63t12 45t18.5 30.5
q14 16 34.5 25.5t48.5 9.5t48.5 -9.5t34.5 -25.5q11 -12 18.5 -30.5t12 -45t6 -63t1.5 -85.5h-204zM252 283q-1 74 -6 112t-23 58q-9 10 -22.5 16.5t-31.5 6.5t-31.5 -6.5t-22.5 -16.5q-18 -20 -23 -58t-6 -112h166zM188 586h-40l63 126h47z" />
    <glyph glyph-name="ecircumflex" unicode="&#xea;" horiz-adv-x="333" 
d="M86 251q0 -45 1 -78t4 -57t9 -40t16 -27q9 -10 23 -16.5t32 -6.5q15 0 29.5 4.5t25.5 15.5q26 25 26 81h37q0 -38 -8.5 -61t-26.5 -42q-16 -16 -37.5 -24t-45.5 -8q-28 0 -49 9.5t-35 25.5q-11 12 -18.5 30.5t-12 45t-6.5 63t-2 85.5t1.5 85.5t6 63t12 45t18.5 30.5
q14 16 34.5 25.5t48.5 9.5t48.5 -9.5t34.5 -25.5q11 -12 18.5 -30.5t12 -45t6 -63t1.5 -85.5h-204zM252 283q-1 74 -6 112t-23 58q-9 10 -22.5 16.5t-31.5 6.5t-31.5 -6.5t-22.5 -16.5q-18 -20 -23 -58t-6 -112h166zM229 586l-60 95l-60 -95h-41l82 126h38l82 -126h-41z" />
    <glyph glyph-name="edieresis" unicode="&#xeb;" horiz-adv-x="333" 
d="M86 251q0 -45 1 -78t4 -57t9 -40t16 -27q9 -10 23 -16.5t32 -6.5q15 0 29.5 4.5t25.5 15.5q26 25 26 81h37q0 -38 -8.5 -61t-26.5 -42q-16 -16 -37.5 -24t-45.5 -8q-28 0 -49 9.5t-35 25.5q-11 12 -18.5 30.5t-12 45t-6.5 63t-2 85.5t1.5 85.5t6 63t12 45t18.5 30.5
q14 16 34.5 25.5t48.5 9.5t48.5 -9.5t34.5 -25.5q11 -12 18.5 -30.5t12 -45t6 -63t1.5 -85.5h-204zM252 283q-1 74 -6 112t-23 58q-9 10 -22.5 16.5t-31.5 6.5t-31.5 -6.5t-22.5 -16.5q-18 -20 -23 -58t-6 -112h166zM206 609v50h50v-50h-50zM82 609v50h50v-50h-50z" />
    <glyph glyph-name="igrave" unicode="&#xec;" horiz-adv-x="170" 
d="M66 0v502h38v-502h-38zM66 586l-70 126h47l63 -126h-40z" />
    <glyph glyph-name="iacute" unicode="&#xed;" horiz-adv-x="170" 
d="M66 0v502h38v-502h-38zM104 586h-40l63 126h47z" />
    <glyph glyph-name="icircumflex" unicode="&#xee;" horiz-adv-x="170" 
d="M66 0v502h38v-502h-38zM145 586l-60 95l-60 -95h-41l82 126h38l82 -126h-41z" />
    <glyph glyph-name="idieresis" unicode="&#xef;" horiz-adv-x="170" 
d="M66 0v502h38v-502h-38zM122 609v50h50v-50h-50zM-2 609v50h50v-50h-50z" />
    <glyph glyph-name="eth" unicode="&#xf0;" 
d="M290 251q0 -49 -1.5 -85.5t-6 -63t-12 -45t-18.5 -30.5q-14 -16 -34.5 -25.5t-48.5 -9.5t-48.5 9.5t-34.5 25.5q-11 12 -18.5 30.5t-12 45t-6 63t-1.5 85.5t1.5 85.5t6 63t12 45t18.5 30.5q14 15 34.5 24.5t46.5 9.5q31 0 54 -13l-33 90h-84v32h72l-37 94h40l36 -94h72
v-32h-60l41 -120q6 -17 10 -35.5t6.5 -43t4 -57.5t1.5 -79zM252 251q0 45 -1 78t-4 57t-8.5 40t-15.5 27q-9 10 -22.5 16.5t-31.5 6.5t-31.5 -6.5t-22.5 -16.5q-10 -11 -15.5 -27t-8.5 -40t-4 -57t-1 -78t1 -78t4 -57t8.5 -40t15.5 -27q9 -10 22.5 -16.5t31.5 -6.5t31.5 6.5
t22.5 16.5q10 11 15.5 27t8.5 40t4 57t1 78z" />
    <glyph glyph-name="ntilde" unicode="&#xf1;" horiz-adv-x="357" 
d="M258 0v384q0 46 -22.5 68.5t-54.5 22.5t-54.5 -22.5t-22.5 -68.5v-384h-38v502h38v-41q4 8 12 16.5t14 13.5q12 9 26.5 14t33.5 5q45 0 75 -32q15 -15 23 -37.5t8 -57.5v-383h-38zM292 633q-25 -25 -39.5 -30t-24.5 -5q-15 0 -27 5t-24 12q-11 6 -20.5 11t-20.5 5
q-9 0 -17 -3.5t-25 -20.5l-22 22q25 25 39 30t25 5q16 0 27 -4.5t24 -12.5q11 -7 20.5 -11.5t20.5 -4.5q8 0 16.5 3.5t25.5 20.5z" />
    <glyph glyph-name="ograve" unicode="&#xf2;" 
d="M322 251q0 -49 -1.5 -85.5t-6 -63t-12 -45t-18.5 -30.5q-14 -16 -34.5 -25.5t-48.5 -9.5t-48.5 9.5t-34.5 25.5q-11 12 -18.5 30.5t-12 45t-6 63t-1.5 85.5t1.5 85.5t6 63t12 45t18.5 30.5q14 16 34.5 25.5t48.5 9.5t48.5 -9.5t34.5 -25.5q11 -12 18.5 -30.5t12 -45
t6 -63t1.5 -85.5zM284 251q0 45 -1 78t-4 57t-8.5 40t-15.5 27q-9 10 -22.5 16.5t-31.5 6.5t-31.5 -6.5t-22.5 -16.5q-10 -11 -15.5 -27t-8.5 -40t-4 -57t-1 -78t1 -78t4 -57t8.5 -40t15.5 -27q9 -10 22.5 -16.5t31.5 -6.5t31.5 6.5t22.5 16.5q10 11 15.5 27t8.5 40t4 57
t1 78zM185 586l-70 126h47l63 -126h-40z" />
    <glyph glyph-name="oacute" unicode="&#xf3;" 
d="M290 251q0 -49 -1.5 -85.5t-6 -63t-12 -45t-18.5 -30.5q-14 -16 -34.5 -25.5t-48.5 -9.5t-48.5 9.5t-34.5 25.5q-11 12 -18.5 30.5t-12 45t-6 63t-1.5 85.5t1.5 85.5t6 63t12 45t18.5 30.5q14 16 34.5 25.5t48.5 9.5t48.5 -9.5t34.5 -25.5q11 -12 18.5 -30.5t12 -45
t6 -63t1.5 -85.5zM252 251q0 45 -1 78t-4 57t-8.5 40t-15.5 27q-9 10 -22.5 16.5t-31.5 6.5t-31.5 -6.5t-22.5 -16.5q-10 -11 -15.5 -27t-8.5 -40t-4 -57t-1 -78t1 -78t4 -57t8.5 -40t15.5 -27q9 -10 22.5 -16.5t31.5 -6.5t31.5 6.5t22.5 16.5q10 11 15.5 27t8.5 40t4 57
t1 78zM188 586h-40l63 126h47z" />
    <glyph glyph-name="ocircumflex" unicode="&#xf4;" 
d="M290 251q0 -49 -1.5 -85.5t-6 -63t-12 -45t-18.5 -30.5q-14 -16 -34.5 -25.5t-48.5 -9.5t-48.5 9.5t-34.5 25.5q-11 12 -18.5 30.5t-12 45t-6 63t-1.5 85.5t1.5 85.5t6 63t12 45t18.5 30.5q14 16 34.5 25.5t48.5 9.5t48.5 -9.5t34.5 -25.5q11 -12 18.5 -30.5t12 -45
t6 -63t1.5 -85.5zM252 251q0 45 -1 78t-4 57t-8.5 40t-15.5 27q-9 10 -22.5 16.5t-31.5 6.5t-31.5 -6.5t-22.5 -16.5q-10 -11 -15.5 -27t-8.5 -40t-4 -57t-1 -78t1 -78t4 -57t8.5 -40t15.5 -27q9 -10 22.5 -16.5t31.5 -6.5t31.5 6.5t22.5 16.5q10 11 15.5 27t8.5 40t4 57
t1 78zM229 586l-60 95l-60 -95h-41l82 126h38l82 -126h-41z" />
    <glyph glyph-name="otilde" unicode="&#xf5;" 
d="M290 251q0 -49 -1.5 -85.5t-6 -63t-12 -45t-18.5 -30.5q-14 -16 -34.5 -25.5t-48.5 -9.5t-48.5 9.5t-34.5 25.5q-11 12 -18.5 30.5t-12 45t-6 63t-1.5 85.5t1.5 85.5t6 63t12 45t18.5 30.5q14 16 34.5 25.5t48.5 9.5t48.5 -9.5t34.5 -25.5q11 -12 18.5 -30.5t12 -45
t6 -63t1.5 -85.5zM252 251q0 45 -1 78t-4 57t-8.5 40t-15.5 27q-9 10 -22.5 16.5t-31.5 6.5t-31.5 -6.5t-22.5 -16.5q-10 -11 -15.5 -27t-8.5 -40t-4 -57t-1 -78t1 -78t4 -57t8.5 -40t15.5 -27q9 -10 22.5 -16.5t31.5 -6.5t31.5 6.5t22.5 16.5q10 11 15.5 27t8.5 40t4 57
t1 78zM279 633q-25 -25 -39.5 -30t-24.5 -5q-15 0 -27 5t-24 12q-11 6 -20.5 11t-20.5 5q-9 0 -17 -3.5t-25 -20.5l-22 22q25 25 39 30t25 5q16 0 27 -4.5t24 -12.5q11 -7 20.5 -11.5t20.5 -4.5q8 0 16.5 3.5t25.5 20.5z" />
    <glyph glyph-name="odieresis" unicode="&#xf6;" 
d="M290 251q0 -49 -1.5 -85.5t-6 -63t-12 -45t-18.5 -30.5q-14 -16 -34.5 -25.5t-48.5 -9.5t-48.5 9.5t-34.5 25.5q-11 12 -18.5 30.5t-12 45t-6 63t-1.5 85.5t1.5 85.5t6 63t12 45t18.5 30.5q14 16 34.5 25.5t48.5 9.5t48.5 -9.5t34.5 -25.5q11 -12 18.5 -30.5t12 -45
t6 -63t1.5 -85.5zM252 251q0 45 -1 78t-4 57t-8.5 40t-15.5 27q-9 10 -22.5 16.5t-31.5 6.5t-31.5 -6.5t-22.5 -16.5q-10 -11 -15.5 -27t-8.5 -40t-4 -57t-1 -78t1 -78t4 -57t8.5 -40t15.5 -27q9 -10 22.5 -16.5t31.5 -6.5t31.5 6.5t22.5 16.5q10 11 15.5 27t8.5 40t4 57
t1 78zM206 609v50h50v-50h-50zM82 609v50h50v-50h-50z" />
    <glyph glyph-name="divide" unicode="&#xf7;" horiz-adv-x="422" 
d="M50 255v36h322v-36h-322zM183 110v58h58v-58h-58zM183 377v58h58v-58h-58z" />
    <glyph glyph-name="oslash" unicode="&#xf8;" horiz-adv-x="330" 
d="M262 462q17 -26 22.5 -74.5t5.5 -136.5q0 -49 -1.5 -85.5t-6 -63t-12 -45t-18.5 -30.5q-14 -16 -34.5 -25.5t-48.5 -9.5q-40 0 -66 20l-19 -56h-37l29 84q-16 27 -22 75.5t-6 135.5q0 49 1.5 85.5t6 63t12 45t18.5 30.5q14 16 34.5 25.5t48.5 9.5q40 0 66 -20l19 56h37z
M252 251q0 60 -1.5 99t-8.5 65l-126 -367q9 -10 22 -16t31 -6t31.5 6.5t22.5 16.5q10 11 15.5 27t8.5 40t4 57t1 78zM222 454q-9 10 -22 16t-31 6t-31.5 -6.5t-22.5 -16.5q-10 -11 -15.5 -27t-8.5 -40t-4 -57t-1 -78q0 -60 1.5 -99t8.5 -64z" />
    <glyph glyph-name="ugrave" unicode="&#xf9;" horiz-adv-x="357" 
d="M253 0v41q-4 -8 -12 -16.5t-14 -13.5q-12 -9 -26.5 -14t-33.5 -5q-45 0 -75 32q-15 15 -23 37.5t-8 57.5v383h38v-384q0 -46 22.5 -68.5t54.5 -22.5t54.5 22.5t22.5 68.5v384h38v-502h-38zM164 586l-70 126h47l63 -126h-40z" />
    <glyph glyph-name="uacute" unicode="&#xfa;" horiz-adv-x="357" 
d="M253 0v41q-4 -8 -12 -16.5t-14 -13.5q-12 -9 -26.5 -14t-33.5 -5q-45 0 -75 32q-15 15 -23 37.5t-8 57.5v383h38v-384q0 -46 22.5 -68.5t54.5 -22.5t54.5 22.5t22.5 68.5v384h38v-502h-38zM202 586h-40l63 126h47z" />
    <glyph glyph-name="ucircumflex" unicode="&#xfb;" horiz-adv-x="357" 
d="M253 0v41q-4 -8 -12 -16.5t-14 -13.5q-12 -9 -26.5 -14t-33.5 -5q-45 0 -75 32q-15 15 -23 37.5t-8 57.5v383h38v-384q0 -46 22.5 -68.5t54.5 -22.5t54.5 22.5t22.5 68.5v384h38v-502h-38zM243 586l-60 95l-60 -95h-41l82 126h38l82 -126h-41z" />
    <glyph glyph-name="udieresis" unicode="&#xfc;" horiz-adv-x="357" 
d="M253 0v41q-4 -8 -12 -16.5t-14 -13.5q-12 -9 -26.5 -14t-33.5 -5q-45 0 -75 32q-15 15 -23 37.5t-8 57.5v383h38v-384q0 -46 22.5 -68.5t54.5 -22.5t54.5 22.5t22.5 68.5v384h38v-502h-38zM220 609v50h50v-50h-50zM96 609v50h50v-50h-50z" />
    <glyph glyph-name="yacute" unicode="&#xfd;" horiz-adv-x="281" 
d="M131 -110q-12 -52 -44.5 -76t-85.5 -24v34q44 0 64.5 19t28.5 50l27 109l-117 500h42l93 -442l93 442h42zM164 586h-40l63 126h47z" />
    <glyph glyph-name="thorn" unicode="&#xfe;" horiz-adv-x="350" 
d="M302 251q0 -98 -7.5 -149t-30.5 -76q-13 -14 -31 -24t-43 -10q-36 0 -60 17q-7 5 -14 13.5t-12 16.5v-249h-38v922h38v-251q4 8 12 16.5t14 13.5q25 19 60 19q43 0 74 -34q23 -25 30.5 -76t7.5 -149zM264 251q0 45 -1 78t-4 57t-8.5 40t-15.5 27q-9 10 -22 16.5t-30 6.5
q-31 0 -53 -20q-13 -13 -19.5 -31.5t-6.5 -46.5v-254q0 -28 6.5 -46.5t19.5 -31.5q22 -20 53 -20q17 0 30 6.5t22 16.5q10 11 15.5 27t8.5 40t4 57t1 78z" />
    <glyph glyph-name="ydieresis" unicode="&#xff;" horiz-adv-x="281" 
d="M131 -110q-12 -52 -44.5 -76t-85.5 -24v34q44 0 64.5 19t28.5 50l27 109l-117 500h42l93 -442l93 442h42zM182 609v50h50v-50h-50zM58 609v50h50v-50h-50z" />
    <glyph glyph-name="dotlessi" unicode="&#x131;" horiz-adv-x="170" 
d="M66 0v502h38v-502h-38z" />
    <glyph glyph-name="Lslash" unicode="&#x141;" horiz-adv-x="321" 
d="M69 0v308l-51 -51v50l51 51v354h40v-314l95 94v-50l-95 -94v-312h190v-36h-230z" />
    <glyph glyph-name="lslash" unicode="&#x142;" horiz-adv-x="225" 
d="M205 0q-26 0 -49.5 6.5t-42.5 25.5q-15 15 -24 37.5t-9 57.5v201l-65 -71v50l65 71v334h38v-293l67 73v-50l-67 -73v-244q0 -91 87 -91v-34z" />
    <glyph glyph-name="OE" unicode="&#x152;" horiz-adv-x="588" 
d="M308 0v44q-33 -52 -105 -52q-29 0 -53.5 9t-41.5 26q-16 16 -25.5 35t-15 53.5t-7.5 91.5t-2 149t2 149t7.5 91.5t15 53.5t25.5 35q17 17 41.5 26t53.5 9q72 0 105 -52v44h230v-36h-190v-302h164v-36h-164v-302h190v-36h-230zM308 356q0 89 -1.5 142.5t-5.5 85t-11.5 47
t-19.5 28.5q-23 25 -67 25t-67 -25q-12 -13 -19.5 -28.5t-11.5 -47t-5.5 -85t-1.5 -142.5t1.5 -142.5t5.5 -85t11.5 -47t19.5 -28.5q23 -25 67 -25t67 25q12 13 19.5 28.5t11.5 47t5.5 85t1.5 142.5z" />
    <glyph glyph-name="oe" unicode="&#x153;" horiz-adv-x="539" 
d="M290 251q0 -45 1 -78t4 -57t9 -40t16 -27q9 -10 23 -16.5t32 -6.5q15 0 29.5 4.5t25.5 15.5q26 25 26 81h37q0 -38 -8.5 -61t-26.5 -42q-16 -16 -37.5 -24t-45.5 -8q-28 0 -49 9.5t-35 25.5q-11 13 -20 33q-7 -19 -19 -33q-14 -16 -34.5 -25.5t-48.5 -9.5t-48.5 9.5
t-34.5 25.5q-11 12 -18.5 30.5t-12 45t-6 63t-1.5 85.5t1.5 85.5t6 63t12 45t18.5 30.5q14 16 34.5 25.5t48.5 9.5t48.5 -9.5t34.5 -25.5q12 -13 19 -32q7 19 19 32q14 16 34.5 25.5t48.5 9.5t48.5 -9.5t34.5 -25.5q11 -12 18.5 -30.5t12 -45t6 -63t1.5 -85.5h-204zM252 251
q0 45 -1 78t-4 57t-8.5 40t-15.5 27q-9 10 -22.5 16.5t-31.5 6.5t-31.5 -6.5t-22.5 -16.5q-10 -11 -15.5 -27t-8.5 -40t-4 -57t-1 -78t1 -78t4 -57t8.5 -40t15.5 -27q9 -10 22.5 -16.5t31.5 -6.5t31.5 6.5t22.5 16.5q10 11 15.5 27t8.5 40t4 57t1 78zM456 283q-1 74 -6 112
t-23 58q-9 10 -22.5 16.5t-31.5 6.5t-31.5 -6.5t-22.5 -16.5q-18 -20 -23 -58t-6 -112h166z" />
    <glyph glyph-name="Scaron" unicode="&#x160;" horiz-adv-x="380" 
d="M331 182q0 -57 -10.5 -93t-33.5 -60q-17 -17 -41.5 -26t-59.5 -9q-32 0 -57.5 8t-44.5 27q-12 12 -19.5 25t-12.5 29.5t-7 38t-2 51.5h40q0 -46 6.5 -72t24.5 -44q26 -26 72 -26q26 0 44 7t29 19q20 20 26 48.5t6 75.5q0 35 -3.5 60.5t-12 43.5t-23.5 30t-39 22l-73 30
q-27 11 -45 25.5t-28.5 34.5t-14.5 48.5t-4 68.5q0 92 45 137q37 37 98 37q63 0 100 -37q26 -26 33 -56.5t7 -75.5h-40q0 37 -6.5 61t-23.5 44q-25 28 -71 28q-23 0 -39 -6.5t-28 -17.5q-19 -18 -27 -47.5t-8 -65.5q0 -34 3 -57t12 -39.5t25 -28t43 -22.5l73 -30
q28 -11 45 -28t26.5 -40t12.5 -52.5t3 -65.5zM216 758h-40l-82 126h42l60 -95l60 95h42z" />
    <glyph glyph-name="scaron" unicode="&#x161;" horiz-adv-x="320" 
d="M285 122q0 -27 -10 -51.5t-27 -41.5t-40 -27t-51 -10q-27 0 -48 9t-37 25q-22 22 -29.5 49t-7.5 58h38q0 -27 6 -47.5t23 -37.5q11 -11 25.5 -16.5t29.5 -5.5q39 0 64 25q12 13 19 30.5t7 40.5q0 17 -3.5 32t-11.5 29t-22 25.5t-33 22.5l-61 37q-23 14 -39 30t-23 29
q-8 14 -10.5 29t-2.5 33q0 26 10 49t27 40q16 15 37 23.5t46 8.5q52 0 84 -32q19 -19 26.5 -45t7.5 -62h-38q0 32 -5.5 50.5t-19.5 32.5q-11 12 -25.5 17t-29.5 5q-36 0 -57 -21q-14 -13 -19.5 -31t-5.5 -35q0 -30 11 -49q11 -18 49 -42l61 -37q23 -14 39.5 -29t26.5 -32
q11 -17 15 -37.5t4 -40.5zM185 578h-40l-82 126h42l60 -95l60 95h42z" />
    <glyph glyph-name="Ydieresis" unicode="&#x178;" horiz-adv-x="289" 
d="M164 305v-305h-40v305l-120 407h44l96 -341l97 341h44zM184 789v50h50v-50h-50zM60 789v50h50v-50h-50z" />
    <glyph glyph-name="Zcaron" unicode="&#x17d;" horiz-adv-x="307" 
d="M30 0v32l206 644h-191v36h232v-32l-205 -644h205v-36h-247zM177 758h-40l-82 126h42l60 -95l60 95h42z" />
    <glyph glyph-name="zcaron" unicode="&#x17e;" horiz-adv-x="259" 
d="M20 0v31l179 437h-169v34h209v-31l-179 -437h179v-34h-219zM154 578h-40l-82 126h42l60 -95l60 95h42z" />
    <glyph glyph-name="florin" unicode="&#x192;" horiz-adv-x="327" 
d="M295 678q-39 0 -67.5 -22.5t-36.5 -68.5l-38 -207h86v-31h-92l-109 -560h-38l109 560h-59v31h65l38 205q11 61 49 94t100 33h5v-34h-12z" />
    <glyph glyph-name="circumflex" unicode="&#x2c6;" 
d="M229 586l-60 95l-60 -95h-41l82 126h38l82 -126h-41z" />
    <glyph glyph-name="caron" unicode="&#x2c7;" 
d="M189 578h-40l-82 126h42l60 -95l60 95h42z" />
    <glyph glyph-name="breve" unicode="&#x2d8;" 
d="M274 697q-5 -48 -29 -73.5t-76 -25.5t-76 25.5t-29 73.5h36q5 -32 21 -48.5t48 -16.5t48 16.5t21 48.5h36z" />
    <glyph glyph-name="dotaccent" unicode="&#x2d9;" 
d="M144 640v50h50v-50h-50z" />
    <glyph glyph-name="ring" unicode="&#x2da;" 
d="M255 666q0 -35 -25.5 -60.5t-60.5 -25.5t-60.5 25.5t-25.5 60.5t25.5 60.5t60.5 25.5t60.5 -25.5t25.5 -60.5zM224 666q0 23 -16 39t-39 16t-39 -16t-16 -39t16 -39t39 -16t39 16t16 39z" />
    <glyph glyph-name="ogonek" unicode="&#x2db;" 
d="M185 -162l-43 126h38l50 -126h-45z" />
    <glyph glyph-name="tilde" unicode="&#x2dc;" 
d="M279 633q-25 -25 -39.5 -30t-24.5 -5q-15 0 -27 5t-24 12q-11 6 -20.5 11t-20.5 5q-9 0 -17 -3.5t-25 -20.5l-22 22q25 25 39 30t25 5q16 0 27 -4.5t24 -12.5q11 -7 20.5 -11.5t20.5 -4.5q8 0 16.5 3.5t25.5 20.5z" />
    <glyph glyph-name="hungarumlaut" unicode="&#x2dd;" 
d="M238 578h-42l63 126h49zM118 578h-42l63 126h49z" />
    <glyph glyph-name="endash" unicode="&#x2013;" horiz-adv-x="422" 
d="M50 255v36h322v-36h-322z" />
    <glyph glyph-name="emdash" unicode="&#x2014;" horiz-adv-x="656" 
d="M58 255v36h540v-36h-540z" />
    <glyph glyph-name="quoteleft" unicode="&#x2018;" horiz-adv-x="168" 
d="M58 652v60l52 38v-98h-52z" />
    <glyph glyph-name="quoteright" unicode="&#x2019;" horiz-adv-x="168" 
d="M58 614v98h52v-60z" />
    <glyph glyph-name="quotesinglbase" unicode="&#x201a;" horiz-adv-x="168" 
d="M58 -38v98h52v-60z" />
    <glyph glyph-name="quotedblleft" unicode="&#x201c;" horiz-adv-x="296" 
d="M186 652v60l52 38v-98h-52zM58 652v60l52 38v-98h-52z" />
    <glyph glyph-name="quotedblright" unicode="&#x201d;" horiz-adv-x="296" 
d="M186 614v98h52v-60zM58 614v98h52v-60z" />
    <glyph glyph-name="quotedblbase" unicode="&#x201e;" horiz-adv-x="296" 
d="M186 -38v98h52v-60zM58 -38v98h52v-60z" />
    <glyph glyph-name="dagger" unicode="&#x2020;" horiz-adv-x="432" 
d="M235 468v-468h-38v468h-147v34h147v210h38v-210h147v-34h-147z" />
    <glyph glyph-name="daggerdbl" unicode="&#x2021;" horiz-adv-x="432" 
d="M235 0v-210h-38v210h-147v34h147v434h-147v34h147v210h38v-210h147v-34h-147v-434h147v-34h-147z" />
    <glyph glyph-name="bullet" unicode="&#x2022;" horiz-adv-x="470" 
d="M398 334q0 -34 -13 -63.5t-35 -51.5t-51.5 -35t-63.5 -13t-63.5 13t-51.5 35t-35 51.5t-13 63.5t13 63.5t35 51.5t51.5 35t63.5 13t63.5 -13t51.5 -35t35 -51.5t13 -63.5z" />
    <glyph glyph-name="ellipsis" unicode="&#x2026;" horiz-adv-x="510" 
d="M388 0v58h58v-58h-58zM226 0v58h58v-58h-58zM64 0v58h58v-58h-58z" />
    <glyph glyph-name="perthousand" unicode="&#x2030;" horiz-adv-x="832" 
d="M234 438q0 -41 -24 -66.5t-64 -25.5t-64 25.5t-24 66.5v190q0 41 24 66.5t64 25.5t64 -25.5t24 -66.5v-190zM518 84q0 -41 -24 -66.5t-64 -25.5t-64 25.5t-24 66.5v190q0 41 24 66.5t64 25.5t64 -25.5t24 -66.5v-190zM774 84q0 -41 -24 -66.5t-64 -25.5t-64 25.5
t-24 66.5v190q0 41 24 66.5t64 25.5t64 -25.5t24 -66.5v-190zM199 628q0 28 -13.5 44.5t-39.5 16.5t-39.5 -16.5t-13.5 -44.5v-190q0 -28 13.5 -44.5t39.5 -16.5t39.5 16.5t13.5 44.5v190zM483 274q0 28 -13.5 44.5t-39.5 16.5t-39.5 -16.5t-13.5 -44.5v-190
q0 -28 13.5 -44.5t39.5 -16.5t39.5 16.5t13.5 44.5v190zM739 274q0 28 -13.5 44.5t-39.5 16.5t-39.5 -16.5t-13.5 -44.5v-190q0 -28 13.5 -44.5t39.5 -16.5t39.5 16.5t13.5 44.5v190zM181 0h-34l248 712h34z" />
    <glyph glyph-name="guilsinglleft" unicode="&#x2039;" horiz-adv-x="215" 
d="M30 265l127 196v-73l-81 -123l81 -123v-73z" />
    <glyph glyph-name="guilsinglright" unicode="&#x203a;" horiz-adv-x="215" 
d="M58 69v73l81 123l-81 123v73l127 -196z" />
    <glyph glyph-name="fraction" unicode="&#x2044;" horiz-adv-x="80" 
d="M-67 0h-34l248 712h34z" />
    <glyph glyph-name="Euro" horiz-adv-x="430" 
d="M381 154q0 -41 -11 -75.5t-36 -56.5q-33 -30 -88 -30q-29 0 -53.5 9t-41.5 26q-14 14 -23 30t-14.5 42.5t-8.5 67.5t-4 105h-65v31h65v106h-65v31h65q1 65 4 106t8.5 67t14.5 42t23 30q17 17 41.5 26t53.5 9q32 0 54.5 -9t39.5 -26q22 -23 31.5 -56t9.5 -71h-40
q0 24 -4 46.5t-15 40t-29 28.5t-47 11q-44 0 -67 -25q-10 -11 -17 -24t-11.5 -36.5t-6.5 -61t-3 -97.5h143v-31h-143v-106h143v-31h-143q1 -60 3 -97.5t6.5 -61t11.5 -36.5t17 -24q23 -25 67 -25q29 0 47 11t29 28.5t15 40t4 46.5h40z" />
    <glyph glyph-name="eurocurrency" unicode="&#x20ac;" horiz-adv-x="657" 
d="M490 79l-57 57q-21 -17 -48 -27t-57 -10t-57 10t-48 27l-57 -57l-24 24l57 57q-17 21 -27 48t-10 57t10 57.5t27 48.5l-57 56l24 24l57 -56q44 36 105 36t105 -36l57 56l24 -24l-57 -56q17 -21 27 -48.5t10 -57.5t-10 -57t-27 -48l57 -57zM457 265q0 27 -10 50.5
t-27.5 41t-41 27.5t-50.5 10t-50.5 -10t-41 -27.5t-27.5 -41t-10 -50.5t10 -50.5t27.5 -41t41 -27.5t50.5 -10t50.5 10t41 27.5t27.5 41t10 50.5z" />
    <glyph glyph-name="trademark" unicode="&#x2122;" horiz-adv-x="591" 
d="M498 285v344l-80 -218h-28l-80 210v-336h-33v427h34l93 -247l93 247h34v-427h-33zM143 682v-397h-33v397h-74v30h181v-30h-74z" />
    <glyph glyph-name="minus" unicode="&#x2212;" horiz-adv-x="303" 
d="M58 255v36h187v-36h-187z" />
    <glyph glyph-name="fi" unicode="&#xfb01;" horiz-adv-x="376" 
d="M118 471v-471h-38v471h-65v31h65v83q0 62 33 95q20 20 45 26t52 6v-34q-92 0 -92 -91v-85h92v-31h-92zM272 0v502h38v-502h-38zM263 637v56h56v-56h-56z" />
    <glyph glyph-name="fl" unicode="&#xfb02;" horiz-adv-x="412" 
d="M118 471v-471h-38v471h-65v31h65v83q0 62 33 95q20 20 45 26t52 6v-34q-92 0 -92 -91v-85h92v-31h-92zM397 0q-26 0 -49.5 6.5t-42.5 25.5q-15 15 -24 37.5t-9 57.5v585h38v-587q0 -91 87 -91v-34z" />
  </font>
</defs>
</svg>
