<?xml version="1.0" standalone="no"?>
<!DOCTYPE svg PUBLIC "-//W3C//DTD SVG 20010904//EN"
 "http://www.w3.org/TR/2001/REC-SVG-20010904/DTD/svg10.dtd">
<svg version="1.0" xmlns="http://www.w3.org/2000/svg"
 width="260.000000pt" height="260.000000pt" viewBox="0 0 260.000000 260.000000"
 preserveAspectRatio="xMidYMid meet">
<metadata>
Created by potrace 1.11, written by Peter Selinger 2001-2013
</metadata>
<g transform="translate(0.000000,260.000000) scale(0.100000,-0.100000)"
fill="#000000" stroke="none">
<path d="M225 1320 l0 -1050 468 0 467 0 0 240 c0 221 5 263 25 230 11 -18
265 -194 375 -260 221 -133 472 -237 597 -248 56 -4 64 -2 87 21 28 28 34 68
13 86 -8 6 -47 18 -88 26 -104 22 -198 51 -312 96 -134 53 -321 149 -311 158
5 4 40 13 77 20 366 64 627 280 718 593 27 94 38 328 19 432 -36 202 -138 375
-293 492 -80 61 -240 137 -342 163 -184 48 -243 51 -890 51 l-610 0 0 -1050z
m1236 939 c411 -41 668 -214 766 -514 35 -109 44 -314 18 -431 -74 -337 -329
-539 -751 -595 l-92 -12 -53 38 c-30 21 -84 62 -121 93 l-68 54 0 682 c0 376
3 686 7 689 10 10 178 8 294 -4z"/>
</g>
</svg>
