<svg version="1.2" baseProfile="tiny" xmlns="http://www.w3.org/2000/svg" width="34.016" height="34.016" viewBox="0 0 34.016 34.016"><path fill="#fff" d="M25.54 12.552c-.625.278-1.3.466-2.006.55a3.505 3.505 0 0 0 1.537-1.933c-.675.4-1.422.69-2.22.846a3.494 3.494 0 0 0-5.954 3.187 9.923 9.923 0 0 1-7.205-3.652 3.509 3.509 0 0 0 1.083 4.67 3.521 3.521 0 0 1-1.584-.438v.043a3.495 3.495 0 0 0 2.804 3.427 3.41 3.41 0 0 1-.92.123c-.226 0-.446-.02-.658-.062a3.494 3.494 0 0 0 3.265 2.426 7.012 7.012 0 0 1-4.34 1.496c-.282 0-.56-.016-.834-.048a9.908 9.908 0 0 0 5.358 1.57c6.43 0 9.945-5.325 9.945-9.945 0-.152-.004-.303-.01-.452a7.04 7.04 0 0 0 1.74-1.808"/></svg>