<svg xmlns="http://www.w3.org/2000/svg" width="25.834" height="23.479" viewBox="0 0 25.834 23.479"><path fill="#01C0B7" d="M21.52 12.167a4.295 4.295 0 0 1-2.867-1.107c-.78.7-1.8 1.107-2.867 1.107s-2.088-.406-2.867-1.107c-.782.7-1.8 1.107-2.868 1.107s-2.088-.406-2.867-1.107c-.78.7-1.8 1.107-2.867 1.107A4.321 4.321 0 0 1 0 7.852c0-.124.023-.247.068-.363L2.736.636c.15-.384.52-.637.932-.637h18c.39 0 .744.227.908.58l3.166 6.852c.06.132.092.275.092.42a4.32 4.32 0 0 1-4.314 4.315zm-2.868-3.68a1 1 0 0 1 .867.504 2.284 2.284 0 0 0 2 1.177 2.32 2.32 0 0 0 2.306-2.114L21.03 2H4.35L2.006 8.023a2.322 2.322 0 0 0 2.31 2.144c.83 0 1.58-.44 2-1.176.356-.62 1.378-.62 1.735 0a2.29 2.29 0 0 0 2 1.177c.83 0 1.58-.44 2-1.176.356-.62 1.378-.62 1.735 0a2.287 2.287 0 0 0 3.998.001c.18-.31.51-.502.87-.502zm3.432 14.993H3.752a1 1 0 0 1-1-1v-11c0-.554.447-1 1-1s1 .446 1 1v9.998h16.332v-10a1 1 0 1 1 2 0v11a1 1 0 0 1-1 1zm-3.344-1H7.074a.5.5 0 0 1-.5-.5v-7.334a.5.5 0 0 1 .5-.5H18.74a.5.5 0 0 1 .5.5v7.333a.5.5 0 0 1-.5.5zm-11.166-1H18.24v-6.334H7.574v6.333zM22.588 4.146H3.338a.5.5 0 1 1 0-1h19.25a.5.5 0 0 1 0 1z"/></svg>