<svg xmlns="http://www.w3.org/2000/svg" width="18.332" height="22.527" viewBox="0 0 18.332 22.527"><path fill="#E76946" d="M11.332 22.028a.5.5 0 0 1-.5-.5v-6c0-.275.225-.5.5-.5h6a.5.5 0 0 1 0 1h-5.5v5.5a.5.5 0 0 1-.5.5zm0 .5H1c-.553 0-1-.446-1-1V1c0-.554.447-1 1-1h16.332c.553 0 1 .446 1 1v14.527a.992.992 0 0 1-.293.707l-6 6a.992.992 0 0 1-.707.294zm-9.332-2h8.918l5.414-5.414V2H2v18.528zm7.167-7.043a.997.997 0 0 1-.707-.293l-2.94-2.939a.996.996 0 0 1 0-1.413.995.995 0 0 1 1.413 0l2.234 2.229L11.4 8.84a.995.995 0 0 1 1.414 0 .999.999 0 0 1 0 1.413l-2.94 2.939a.99.99 0 0 1-.707.293zm0-.798a1 1 0 0 1-1-1v-6.81a1 1 0 1 1 2 0v6.81a1 1 0 0 1-1 1z"/></svg>