<svg version="1.2" baseProfile="tiny" xmlns="http://www.w3.org/2000/svg" width="34.016" height="34.016" viewBox="0 0 34.016 34.016"><path fill="#fff" d="M9.225 13.48h3.43v10.317h-3.43zm8.755 10.317v-5.762c0-.31.022-.615.114-.836.248-.616.813-1.257 1.76-1.257 1.242 0 1.738.948 1.738 2.334v5.52h3.43V17.88c0-3.17-1.693-4.642-3.95-4.642-1.82 0-2.634.998-3.09 1.703v.034h-.022c.008-.01.017-.02.02-.033v-1.46h-3.428c.044.968 0 10.317 0 10.317h3.43zM10.917 12.07h.022c1.195 0 1.94-.793 1.94-1.783-.022-1.012-.745-1.783-1.92-1.783-1.17 0-1.938.77-1.938 1.783 0 .99.745 1.783 1.895 1.783zm7.063 2.905v-.033l-.02.033h.02z"/></svg>