<svg version="1.2" baseProfile="tiny" xmlns="http://www.w3.org/2000/svg" width="22.847" height="23.232" viewBox="0 0 22.847 23.232"><path d="M9.967 19.937c-5.493 0-9.965-4.47-9.967-9.964C.002 4.474 4.474.001 9.969 0c5.495 0 9.968 4.472 9.97 9.969-.001 5.496-4.474 9.968-9.972 9.968zM9.969 2C5.576 2.001 2.002 5.577 2 9.972c.002 4.391 3.575 7.964 7.967 7.964 4.396 0 7.972-3.574 7.972-7.967C17.937 5.575 14.361 2 9.969 2z"/><path d="M4.362 9.967h-1C3.363 6.324 6.327 3.36 9.969 3.36v1a5.614 5.614 0 0 0-5.607 5.607zm17.485 13.265a.997.997 0 0 1-.707-.293l-5.568-5.567a.999.999 0 1 1 1.414-1.414l5.568 5.567a.999.999 0 0 1-.707 1.707z"/></svg>