<svg version="1.2" baseProfile="tiny" xmlns="http://www.w3.org/2000/svg" width="90.07" height="90.067" viewBox="0 0 90.07 90.067"><path d="M37.213 90.067C16.693 90.067 0 73.373 0 52.854c0-20.518 16.693-37.21 37.213-37.21a37.02 37.02 0 0 1 20.782 6.34 1.999 1.999 0 1 1-2.236 3.315 33.062 33.062 0 0 0-18.547-5.657C18.9 19.643 4 34.543 4 52.853c0 18.314 14.9 33.214 33.213 33.214 18.313 0 33.21-14.9 33.21-33.213 0-7.364-2.358-14.337-6.82-20.165a2 2 0 1 1 3.175-2.433c5.002 6.532 7.646 14.345 7.646 22.597 0 20.52-16.693 37.213-37.21 37.213zm0-15.791c-11.81 0-21.42-9.61-21.42-21.422 0-11.81 9.61-21.418 21.42-21.418 3.54 0 7.047.882 10.143 2.55a2.002 2.002 0 0 1 .812 2.71 2.001 2.001 0 0 1-2.71.81 17.439 17.439 0 0 0-8.244-2.07c-9.605 0-17.42 7.813-17.42 17.418 0 9.606 7.814 17.422 17.42 17.422 9.604 0 17.418-7.815 17.418-17.422a17.36 17.36 0 0 0-2.764-9.42 2 2 0 0 1 .6-2.765 1.999 1.999 0 0 1 2.764.598 21.348 21.348 0 0 1 3.4 11.586c0 11.812-9.61 21.422-21.42 21.422zm0-14.899a6.53 6.53 0 0 1-6.523-6.523c0-2.924 1.97-5.51 4.786-6.285a1.398 1.398 0 1 1 .744 2.697 3.73 3.73 0 0 0-2.73 3.587 3.727 3.727 0 0 0 3.724 3.723 3.708 3.708 0 0 0 3.45-2.326 1.402 1.402 0 0 1 1.823-.77 1.398 1.398 0 0 1 .772 1.822 6.499 6.499 0 0 1-6.047 4.075zm0-5.123a1.4 1.4 0 0 1-1.242-2.046l5.886-11.316a1.4 1.4 0 0 1 2.231-.344l1.274 1.273 27.137-27.136-1.455-4.396a1.4 1.4 0 0 1 .34-1.43L79.83.41a1.403 1.403 0 0 1 2.293.477l1.763 4.473 5.396 2.626a1.404 1.404 0 0 1 .378 2.249l-7.698 7.696c-.263.263-.62.41-.99.41H77.05a1.399 1.399 0 1 1 0-2.8h3.342l5.898-5.896-4.12-2.005a1.405 1.405 0 0 1-.688-.747L80.304 3.9l-6.33 6.328 1.454 4.395a1.4 1.4 0 0 1-.34 1.43L46.353 44.79a1.4 1.4 0 0 1-1.98 0l-.912-.913-3.323 6.39 7.072-2.64-.574-.574a1.4 1.4 0 1 1 1.98-1.978l2.11 2.113c.338.337.48.822.38 1.287s-.434.847-.88 1.014l-12.523 4.675c-.16.06-.326.09-.49.09zM78.86 12.606c-.554 0-1.078-.33-1.3-.875L75.3 6.15a1.4 1.4 0 0 1 2.595-1.052l2.262 5.58a1.402 1.402 0 0 1-1.298 1.928z" fill="#fff"/></svg>