<svg version="1" xmlns="http://www.w3.org/2000/svg" width="20.504" height="24.25" viewBox="1081.639 752.864 20.504 24.25"><path fill="#fff" d="M1091.89 777.114a1 1 0 0 1-.646-.238c-.982-.84-9.604-8.344-9.604-13.76 0-5.652 4.6-10.252 10.252-10.252 5.652 0 10.252 4.6 10.252 10.25 0 5.418-8.62 12.923-9.604 13.762-.186.158-.42.238-.65.238zm0-22.25c-4.548 0-8.25 3.7-8.25 8.25 0 3.514 5.458 9.154 8.25 11.67 2.794-2.516 8.253-8.156 8.253-11.67 0-4.55-3.702-8.25-8.252-8.25zm0 13.251c-2.755 0-5-2.243-5-5s2.245-5 5-5c2.76 0 5 2.243 5 5s-2.242 5-5 5zm0-8c-1.652 0-3 1.347-3 3 0 1.654 1.348 3 3 3 1.655 0 3-1.346 3-3s-1.345-3-3-3z"/></svg>