<svg version="1.2" baseProfile="tiny" xmlns="http://www.w3.org/2000/svg" width="34.016" height="34.016" viewBox="0 0 34.016 34.016"><path fill="#51473D" d="M23.787 24.512H10.23c-.572 0-1.092-.36-1.295-.896a.371.371 0 0 1 .1-.41l5.293-4.72a.372.372 0 1 1 .496.557L9.76 23.558c.12.13.29.208.47.208h13.557c.18 0 .35-.078.468-.207l-5.122-4.57a.372.372 0 1 1 .497-.556l5.35 4.77a.375.375 0 0 1 .1.412 1.39 1.39 0 0 1-1.293.896zm-4.543-12.619a.575.575 0 0 1-.408-.17L17.008 9.9l-1.828 1.826a.578.578 0 0 1-.817-.817L16.6 8.672a.579.579 0 0 1 .817 0l2.236 2.234a.577.577 0 0 1-.41.987zm-2.236 5.553a.579.579 0 0 1-.578-.58V9.69c0-.32.26-.58.578-.58s.578.26.578.58v7.177c0 .32-.258.58-.578.58zm6.779 7.439H10.23c-.972 0-1.76-.79-1.76-1.76v-8.87c0-.97.788-1.76 1.76-1.76H15a.747.747 0 0 1 0 1.495h-4.77a.27.27 0 0 0-.27.267v8.87c0 .146.12.266.27.266h13.556c.147 0 .267-.12.267-.267v-8.87a.267.267 0 0 0-.267-.266h-4.773a.746.746 0 0 1 0-1.494h4.773c.97 0 1.76.79 1.76 1.76v8.87c0 .97-.79 1.76-1.76 1.76zm-6.779-3.727a.371.371 0 0 1-.25-.094l-7.723-6.887a.373.373 0 0 1 .497-.557l7.476 6.666 7.475-6.666a.373.373 0 1 1 .497.557l-7.723 6.887a.373.373 0 0 1-.25.094z"/></svg>