<svg xmlns="http://www.w3.org/2000/svg" width="25.301" height="20.925" viewBox="0 0 25.301 20.925"><path d="M19.094 20.925a6.215 6.215 0 0 1-6.21-6.207 6.216 6.216 0 0 1 6.21-6.208c3.422 0 6.207 2.785 6.207 6.208s-2.784 6.207-6.206 6.207zm0-11.415a5.215 5.215 0 0 0-5.21 5.208 5.215 5.215 0 0 0 5.21 5.207 5.214 5.214 0 0 0 5.207-5.207 5.212 5.212 0 0 0-5.206-5.208zM11.98 20.496a.984.984 0 0 1-.61-.207l-.303-.212c-.742-.517-2.48-1.725-3.635-2.616C3.018 14.027.764 11.55.336 9.665A7.202 7.202 0 0 1 0 7.525c-.027-2.045.744-4.02 2.117-5.418C3.37.834 5.012.13 6.742.122c1.935-.027 3.714.768 5.01 2.164A6.675 6.675 0 0 1 16.707.002c1.752-.04 3.385.627 4.668 1.868 1.406 1.36 2.227 3.313 2.254 5.36a7.63 7.63 0 0 1-.305 2.234c-.037.2-.14.502-.287.836l-1.824-.82c.086-.193.145-.36.172-.495.176-.61.25-1.163.244-1.73-.02-1.516-.62-2.954-1.645-3.946-.896-.868-2.018-1.342-3.244-1.307-1.705.022-3.235.943-4.1 2.462-.175.308-.5.5-.855.505-.373.03-.685-.18-.868-.483-.898-1.484-2.43-2.366-4.104-2.366h-.055c-1.2.007-2.338.5-3.213 1.39C2.543 4.527 1.98 5.982 2 7.5a5.46 5.46 0 0 0 .262 1.635c.2.858 1.26 2.75 6.395 6.746 1.014.783 2.523 1.84 3.335 2.405.48-.332 1.048-.754 1.696-1.26l1.23 1.578c-.98.765-1.77 1.332-2.4 1.736a1.025 1.025 0 0 1-.54.156zm7.114-2.014a1 1 0 0 1-1-1v-5.527a1 1 0 1 1 2 0v5.527a1 1 0 0 1-1 1zm2.764-2.764H16.33a1 1 0 0 1 0-2h5.528a1 1 0 1 1 0 2z"/></svg>