<svg version="1.2" baseProfile="tiny" xmlns="http://www.w3.org/2000/svg" width="17.035" height="13.846" viewBox="8.506 10.912 17.035 13.846"><path d="M25.54 12.552c-.625.278-1.3.466-2.006.55a3.503 3.503 0 0 0 1.536-1.933 7.038 7.038 0 0 1-2.22.846 3.494 3.494 0 0 0-5.955 3.187A9.924 9.924 0 0 1 9.69 11.55a3.5 3.5 0 0 0 1.082 4.67 3.508 3.508 0 0 1-1.584-.44v.045a3.497 3.497 0 0 0 2.806 3.427 3.416 3.416 0 0 1-.92.123 3.3 3.3 0 0 1-.658-.063 3.49 3.49 0 0 0 3.265 2.426 7.006 7.006 0 0 1-4.34 1.497c-.282 0-.562-.016-.834-.048a9.907 9.907 0 0 0 5.357 1.57c6.43 0 9.945-5.325 9.945-9.945 0-.15-.003-.303-.01-.452a7.036 7.036 0 0 0 1.743-1.808"/></svg>