<svg version="1.2" baseProfile="tiny" xmlns="http://www.w3.org/2000/svg" width="83.981" height="107.11" viewBox="0 0 83.981 107.11"><path d="M39.137 83.98H13.285C5.96 83.98 0 78.02 0 70.696V13.284C0 5.96 5.96 0 13.285 0h57.41c7.327 0 13.286 5.96 13.286 13.284v57.412c0 4.253-2.06 8.28-5.512 10.773a2.272 2.272 0 1 1-2.661-3.685 8.774 8.774 0 0 0 3.63-7.09v-57.41c0-4.82-3.922-8.74-8.74-8.74H13.284c-4.82 0-8.74 3.92-8.74 8.74v57.41c0 4.82 3.92 8.74 8.74 8.74h25.853a2.272 2.272 0 1 1-.001 4.545zM72.3 107.11c-.37 0-.727-.147-.99-.41L60.328 95.714l-3.042 6.46c-.236.5-.75.782-1.3.803a1.401 1.401 0 0 1-1.26-.864L43.258 74.368a1.4 1.4 0 0 1 1.828-1.829L72.83 84.003a1.4 1.4 0 0 1 .06 2.562l-6.47 3.03 11 10.995a1.401 1.401 0 0 1 0 1.98l-4.13 4.13a1.39 1.39 0 0 1-.99.41zM59.91 91.915c.367 0 .724.146.99.41l11.4 11.404 2.15-2.15-11.42-11.417a1.402 1.402 0 0 1-.39-1.232c.08-.448.373-.83.786-1.024l5.398-2.527-21.69-8.964 8.968 21.698 2.54-5.395a1.398 1.398 0 0 1 1.266-.805z" fill="#fff"/></svg>