<svg id="Calque_3" xmlns="http://www.w3.org/2000/svg" viewBox="0 0 100 100"><style>.st0{fill:#e76947}</style><path class="st0" d="M18.1 88.9c-.5 0-1-.1-1.5-.4-.9-.5-1.4-1.5-1.4-2.5V26.7c0-1.1.6-2 1.5-2.6l21.2-12.6c.5-.3 1.1-.4 1.7-.4.6 0 1.2.1 1.7.4l19.6 11.7 19.6-11.7c.9-.5 2.1-.6 3 0 .9.5 1.5 1.5 1.5 2.6v59.3c0 1.1-.6 2-1.5 2.6L62.8 88.2c-.1.1-.3.2-.4.3-.6.3-1.3.5-2 .4-.4 0-.7-.2-1.1-.4-.2-.1-.3-.2-.4-.3L39.5 76.7 19.7 88.5c-.5.3-1 .4-1.6.4zm2.1-61.2v54.6L37.1 73V18.1l-15.9 9-1 .6zm43.1 1.6v52.9L79.9 73V18.1l-16.6 9.6v1.6zM42.1 73l16.3 9.2V27.7L42.1 18v55z"/></svg>