<svg version="1.2" baseProfile="tiny" xmlns="http://www.w3.org/2000/svg" width="16.391" height="17.008" viewBox="0 0 16.391 17.008"><path d="M5.382 16.167c-2.022 0-3.482-1.28-3.482-2.817 0-1.507 1.812-2.76 3.833-2.74a4.46 4.46 0 0 1 1.31.21c1.098.765 1.885 1.195 2.107 2.065.042.177.065.357.065.543 0 1.538-.99 2.74-3.833 2.74m.532-9.017c-1.356-.04-2.647-1.517-2.88-3.3-.236-1.78.675-3.145 2.03-3.105 1.357.04 2.648 1.47 2.882 3.252S7.27 7.192 5.914 7.15m2.813 2.64C8.25 9.453 7.34 8.634 7.34 8.152c0-.565.162-.843 1.012-1.507.87-.68 1.488-1.638 1.488-2.75 0-1.325-.59-2.616-1.698-3.043h1.67L10.992 0H5.72C3.363 0 1.14 1.79 1.14 3.86c0 2.12 1.61 3.828 4.012 3.828.167 0 .33-.003.488-.015-.156.298-.268.635-.268.983 0 .59.317 1.066.717 1.456-.304 0-.596.01-.914.01C2.25 10.12 0 11.98 0 13.915c0 1.902 2.468 3.092 5.393 3.092 3.334 0 5.177-1.892 5.177-3.794 0-1.526-.45-2.44-1.843-3.424m7.664-2.484h-2.05v-2.05h-1.65v2.05h-2.05v1.65h2.05v2.05h1.65v-2.05h2.05v-1.65z"/></svg>