<svg version="1.2" baseProfile="tiny" xmlns="http://www.w3.org/2000/svg" width="17.008" height="17.008" viewBox="0 0 17.008 17.008"><path fill="#fff" d="M13.72 0H3.288A3.29 3.29 0 0 0 0 3.287v10.435a3.29 3.29 0 0 0 3.287 3.286H13.72a3.29 3.29 0 0 0 3.288-3.287V3.288A3.29 3.29 0 0 0 13.72 0zm.944 1.96h.376v2.88l-2.874.01-.01-2.884 2.508-.008zM6.077 6.758C6.62 6.004 7.505 5.51 8.504 5.51s1.883.494 2.428 1.248a2.98 2.98 0 0 1 .566 1.746 2.998 2.998 0 0 1-2.994 2.993 2.997 2.997 0 0 1-2.993-2.993c0-.652.213-1.254.567-1.746zm9.275 6.963c0 .9-.73 1.63-1.63 1.63H3.286c-.9 0-1.63-.73-1.63-1.63V6.76h2.54a4.614 4.614 0 0 0-.344 1.746 4.655 4.655 0 0 0 4.65 4.65 4.656 4.656 0 0 0 4.65-4.65c0-.617-.124-1.206-.343-1.746h2.54v6.963h.002z"/></svg>