<svg version="1" xmlns="http://www.w3.org/2000/svg" width="70" height="77.96" viewBox="689.424 831.079 70 77.96"><path fill="#fff" d="M724.424 839.04c-19.3 0-35 15.7-35 35s15.7 35 35 35 35-15.7 35-35-15.7-35-35-35zm2.5 64.888v-3.147a2.5 2.5 0 0 0-5 0v3.15c-14.55-1.208-26.18-12.838-27.387-27.39h3.146a2.5 2.5 0 0 0 0-5h-3.146c1.207-14.55 12.836-26.18 27.387-27.388v3.146a2.5 2.5 0 0 0 5 0v-3.146c14.55 1.207 26.18 12.837 27.387 27.39h-3.144a2.5 2.5 0 1 0 0 5h3.146c-1.206 14.55-12.836 26.18-27.387 27.387v-.002zm0-30.924v-17.82a2.5 2.5 0 0 0-5 0v18.855c0 .064.016.128.02.19.01.1.01.197.03.294.02.1.054.19.083.284.02.06.032.122.058.182.045.106.103.205.16.305.023.042.042.086.07.127.093.142.2.27.32.392l11.626 11.624c.49.487 1.13.73 1.772.73.64 0 1.28-.243 1.767-.73a2.501 2.501 0 0 0 0-3.536l-10.904-10.9-.002.002zm-8.722-36.925h12.442a2.5 2.5 0 0 0 0-5h-12.442a2.5 2.5 0 0 0 0 5z"/></svg>