<svg id="Calque_1" xmlns="http://www.w3.org/2000/svg" viewBox="0 0 100 100"><style>.st0{fill:#e76946}</style><path class="st0" d="M57.8 87.9c-1 0-1.8-.8-1.8-1.8V64.8c0-1 .8-1.8 1.8-1.8h21.4c1 0 1.8.8 1.8 1.8s-.8 1.8-1.8 1.8H59.6v19.6c0 .9-.8 1.7-1.8 1.7z"/><path class="st0" d="M57.8 89.7H21c-2 0-3.6-1.6-3.6-3.6v-73c0-2 1.6-3.6 3.6-3.6h58.1c2 0 3.6 1.6 3.6 3.6v51.7c0 .9-.4 1.8-1 2.5L60.3 88.7c-.6.6-1.5 1-2.5 1zm-33.2-7.1h31.8l19.3-19.3V16.6h-51v66h-.1z"/><path class="st0" d="M50.1 57.5c-.9 0-1.8-.3-2.5-1L37.1 46c-1.4-1.4-1.4-3.6 0-5s3.6-1.4 5 0l8 7.9 8-7.9c1.4-1.4 3.6-1.4 5 0s1.4 3.6 0 5L52.6 56.5c-.7.7-1.6 1-2.5 1z"/><path class="st0" d="M50.1 54.7c-2 0-3.6-1.6-3.6-3.6V26.9c0-2 1.6-3.6 3.6-3.6s3.6 1.6 3.6 3.6v24.2c0 2-1.6 3.6-3.6 3.6z"/></svg>