<svg xmlns="http://www.w3.org/2000/svg" width="23.546" height="23.552" viewBox="1202.534 1372.233 23.546 23.552"><path fill="#fff" d="M1214.307 1395.784a11.704 11.704 0 0 1-8.326-3.447 11.71 11.71 0 0 1-3.445-8.328c0-3.147 1.225-6.105 3.448-8.33a11.705 11.705 0 0 1 8.326-3.447c3.145 0 6.103 1.225 8.327 3.448 4.592 4.594 4.592 12.064 0 16.655a11.704 11.704 0 0 1-8.33 3.45zm.002-21.552a9.72 9.72 0 0 0-6.913 2.862 9.715 9.715 0 0 0-2.862 6.914 9.727 9.727 0 0 0 2.86 6.914 9.712 9.712 0 0 0 6.912 2.86 9.724 9.724 0 0 0 6.916-2.862c3.812-3.813 3.812-10.015 0-13.826a9.71 9.71 0 0 0-6.914-2.862zm-.002 21.552a11.704 11.704 0 0 1-8.326-3.447c-.287-.292-.558-.59-.812-.9a1.003 1.003 0 0 1-.094-1.126c.27-.48.64-.85 1.065-1.073a18.928 18.928 0 0 1 4.868-1.55c-.46-.413-.752-.926-.8-1.437-.015-.13-.028-.264-.044-.396a1.367 1.367 0 0 1-.732-1.075l-.202-1.948c-.048-.452.135-.88.45-1.162l-.05-.5c-.066-.682-.222-2.276 1.036-3.398.826-.812 2.164-1.295 3.64-1.295 1.477 0 2.817.483 3.678 1.326 1.22 1.087 1.07 2.68 1.006 3.358l-.056.512c.316.282.498.708.45 1.16l-.204 1.946a1.35 1.35 0 0 1-.73 1.078l-.05.416c-.04.487-.328 1-.79 1.417 1.687.294 3.308.81 4.828 1.53.466.244.834.617 1.104 1.098a.993.993 0 0 1-.096 1.12c-.252.312-.52.61-.812.898a11.693 11.693 0 0 1-8.327 3.448zm-6.955-4.905l.048.046a9.703 9.703 0 0 0 6.907 2.858 9.725 9.725 0 0 0 6.916-2.863l.043-.04a16.77 16.77 0 0 0-4.932-1.358 1 1 0 0 1-.871-1.134l.2-1.372a.992.992 0 0 1 .446-.692.896.896 0 0 0 .312-.31l.143-1.245c.048-.387.313-.71.683-.832l.014-.005.074-.71c-.018-.01-.037-.02-.055-.033a1 1 0 0 1-.426-.944l.146-1.272c.06-.642.08-1.3-.38-1.71-.518-.507-1.368-.788-2.313-.788-.94 0-1.793.28-2.272.755-.498.445-.478 1.106-.414 1.75l.144 1.273a.996.996 0 0 1-.436.942c-.017.01-.03.02-.045.03l.07.708c.008 0 .014.003.02.005a1 1 0 0 1 .682.83c.05.428.098.852.146 1.28.01.006.115.148.308.27a.998.998 0 0 1 .455.704l.19 1.36c.04.267-.03.537-.194.752s-.41.354-.677.386a16.95 16.95 0 0 0-4.93 1.36z"/></svg>