<svg xmlns="http://www.w3.org/2000/svg" width="24.389" height="26.056" viewBox="0 0 24.389 26.056"><path fill="#fff" d="M1 26.056a1 1 0 0 1-1-1V5.226c0-.415.258-.788.646-.935L11.84.065a1.003 1.003 0 0 1 1.355.936v19.83c0 .415-.258.788-.646.935L1.353 25.99a.995.995 0 0 1-.354.066zM2 5.918v17.69l9.195-3.47V2.445L2 5.918zm1.313 4.129a.5.5 0 0 1-.178-.968L9.82 6.555a.502.502 0 0 1 .355.936L3.49 10.015a.566.566 0 0 1-.177.032zm0 6.438a.5.5 0 0 1-.178-.968l6.683-2.523a.5.5 0 1 1 .355.936L3.49 16.453a.514.514 0 0 1-.177.032zm0 3.22a.5.5 0 0 1-.178-.968l6.685-2.523a.503.503 0 0 1 .645.29.501.501 0 0 1-.29.646L3.49 19.673a.566.566 0 0 1-.177.032zm0-6.438a.5.5 0 0 1-.178-.968L9.82 9.775a.5.5 0 0 1 .355.936L3.49 13.235a.566.566 0 0 1-.177.032zm15.964 10.736a.5.5 0 0 1-.5-.5v-5.796c0-.164.08-.318.216-.41a.497.497 0 0 1 .46-.058l4.112 1.552c.258.098.39.386.29.645a.498.498 0 0 1-.644.29l-3.434-1.296v5.073c0 .276-.222.5-.5.5zm0 .5a.988.988 0 0 1-.354-.064l-7.082-2.675a1 1 0 0 1-.645-.936V1c0-.328.16-.636.432-.822a.994.994 0 0 1 .922-.113L23.74 4.29a1 1 0 0 1 .646.937l.002 14.033c0 .26-.1.51-.282.696l-4.11 4.243a1.009 1.009 0 0 1-.72.303zm-6.082-4.365l5.82 2.197 3.373-3.48V5.918l-9.192-3.472v17.692zm8.108-10.004a.498.498 0 0 1-.177-.032l-6.682-2.524a.498.498 0 0 1-.29-.645.496.496 0 0 1 .644-.29l6.682 2.523c.258.098.39.386.29.645a.5.5 0 0 1-.467.324zm0 6.436a.544.544 0 0 1-.177-.03l-6.682-2.524a.498.498 0 0 1-.29-.645.499.499 0 0 1 .644-.29l6.682 2.523c.258.098.39.386.29.645a.498.498 0 0 1-.467.323zm0-3.217a.498.498 0 0 1-.177-.032L14.444 10.8a.498.498 0 0 1-.29-.645.498.498 0 0 1 .644-.29l6.682 2.522c.258.098.39.386.29.645a.498.498 0 0 1-.467.323z"/></svg>