<svg version="1.2" baseProfile="tiny" xmlns="http://www.w3.org/2000/svg" width="17.007" height="14.524" viewBox="383.543 129.315 17.007 14.524"><path fill="#fff" d="M395.526 130.833v3.24c-.078.095-.17.172-.266.23-.103.063-.18.095-.25.095-.076 0-.136-.024-.17-.067-.043-.052-.06-.12-.06-.223v-3.274h-.876v3.565c0 .258.052.446.155.574.1.13.257.19.453.19.172 0 .334-.044.514-.13.17-.094.335-.223.498-.402v.47h.875v-4.27l-.874.003zm-2.667.206c-.233-.215-.532-.318-.892-.318-.395 0-.712.104-.952.3-.232.197-.35.454-.35.79v2.21c0 .37.118.652.34.867.232.213.542.324.918.324.394 0 .712-.104.934-.317.232-.206.343-.487.343-.856v-2.202a1.034 1.034 0 0 0-.34-.8zm-.55 3.068c0 .11-.033.197-.103.267a.382.382 0 0 1-.282.103.345.345 0 0 1-.266-.103.372.372 0 0 1-.095-.267v-2.332c0-.094.035-.17.103-.222.06-.06.154-.086.257-.086.11 0 .206.025.282.086a.26.26 0 0 1 .104.222v2.332zm-2.708-4.793l-.608 2.315h-.07l-.633-2.315h-.993l1.174 3.498v2.29h.986v-2.4l1.14-3.387h-.994zm6.815 10.194c.05.067.077.187.077.34v.396h-.677v-.395c0-.153.017-.272.078-.34.05-.07.137-.113.266-.113.12 0 .206.043.257.112zm-2.69-.02c-.052-.068-.138-.103-.24-.103a.402.402 0 0 0-.164.034.685.685 0 0 0-.163.122v2.417c.06.06.128.11.188.136.06.026.12.043.18.043.103 0 .17-.027.213-.087.044-.05.07-.137.07-.266v-2.005c.002-.128-.025-.222-.084-.29zm0 0c-.052-.068-.138-.103-.24-.103a.402.402 0 0 0-.164.034.685.685 0 0 0-.163.122v2.417c.06.06.128.11.188.136.06.026.12.043.18.043.103 0 .17-.027.213-.087.044-.05.07-.137.07-.266v-2.005c.002-.128-.025-.222-.084-.29zm4.397-2.99H385.97a2.443 2.443 0 0 0-2.427 2.435v2.48a2.435 2.435 0 0 0 2.426 2.425h12.154c1.33 0 2.426-1.09 2.426-2.426v-2.48a2.442 2.442 0 0 0-2.426-2.434zm-8.88 1.705h-.91v4.49h-.875v-4.49h-.9v-.763h2.683v.763zm2.552 4.492h-.78v-.428a1.49 1.49 0 0 1-.445.36.91.91 0 0 1-.446.127c-.18 0-.316-.06-.41-.18-.087-.11-.13-.283-.13-.515v-3.25h.772v2.984c0 .085.017.154.052.197.026.043.085.06.155.06.06 0 .128-.025.214-.085a.813.813 0 0 0 .24-.206v-2.95h.78v3.885zm2.812-.805c0 .274-.06.488-.18.634-.12.146-.3.224-.53.224a.883.883 0 0 1-.404-.085 1.08 1.08 0 0 1-.333-.267v.3h-.78v-5.254h.78v1.688c.104-.11.215-.205.334-.266.12-.06.24-.095.36-.095.24 0 .43.086.557.25.13.163.198.402.198.72v2.152zm2.693-1.038h-1.483v.73c0 .205.017.342.07.42.05.084.145.12.265.12.128 0 .214-.035.266-.105.05-.06.077-.215.077-.438v-.18h.807v.196c0 .404-.103.703-.3.9-.19.206-.48.3-.866.3-.352 0-.626-.104-.824-.317-.196-.213-.3-.505-.3-.882v-1.74c0-.334.112-.608.335-.822.214-.207.497-.317.848-.317.352 0 .626.102.814.3.188.196.29.47.29.84v.994zm-3.815-1.466c-.05 0-.11.01-.163.034a.7.7 0 0 0-.163.12v2.418c.06.06.127.11.187.137.06.026.12.043.18.043.103 0 .17-.026.213-.086.043-.05.07-.137.07-.266v-2.005c0-.13-.027-.224-.087-.293-.05-.068-.135-.102-.238-.102zm.24.103c-.05-.068-.136-.103-.24-.103a.4.4 0 0 0-.162.034.685.685 0 0 0-.163.122v2.417c.06.06.128.11.188.136.06.026.12.043.18.043.103 0 .17-.027.213-.087.044-.05.07-.137.07-.266v-2.005c.002-.128-.025-.222-.084-.29zm0 0c-.05-.068-.136-.103-.24-.103a.4.4 0 0 0-.162.034.685.685 0 0 0-.163.122v2.417c.06.06.128.11.188.136.06.026.12.043.18.043.103 0 .17-.027.213-.087.044-.05.07-.137.07-.266v-2.005c.002-.128-.025-.222-.084-.29z"/></svg>