<svg id="Calque_2" xmlns="http://www.w3.org/2000/svg" viewBox="0 0 100 100"><style>.st0{fill:#e76947}</style><path class="st0" d="M71.4 86.7H28.6c-1.7 0-3.1-1.4-3.1-3.1V16.4c0-1.7 1.4-3.1 3.1-3.1h42.8c1.7 0 3.1 1.4 3.1 3.1v67.2c-.1 1.7-1.4 3.1-3.1 3.1zm-39.7-6.1h36.7V19.4H31.7v61.2z"/><path class="st0" d="M65.3 66.8H34.7c-.8 0-1.5-.7-1.5-1.5V26.6c0-.8.7-1.5 1.5-1.5h30.6c.8 0 1.5.7 1.5 1.5v38.7c0 .8-.7 1.5-1.5 1.5zm-29.1-3.1h27.5V28.1H36.2v35.6z"/><circle class="st0" cx="50" cy="73.6" r="3.6"/></svg>