<svg id="Calque_1" xmlns="http://www.w3.org/2000/svg" viewBox="0 0 100 100"><style>.st0{fill:#b1d163}</style><path class="st0" d="M49.4 19c-19.3 0-35 15.7-35 35s15.7 35 35 35 35-15.7 35-35-15.7-35-35-35zm2.5 64.9v-3.1c0-1.4-1.1-2.5-2.5-2.5s-2.5 1.1-2.5 2.5v3.1c-14.6-1.2-26.2-12.8-27.4-27.4h3.1c1.4 0 2.5-1.1 2.5-2.5s-1.1-2.5-2.5-2.5h-3.1C20.7 37 32.4 25.4 46.9 24.2v3.1c0 1.4 1.1 2.5 2.5 2.5s2.5-1.1 2.5-2.5v-3.1C66.5 25.4 78.1 37 79.3 51.5h-3.1c-1.4 0-2.5 1.1-2.5 2.5s1.1 2.5 2.5 2.5h3.1c-1.2 14.6-12.8 26.2-27.4 27.4z"/><path class="st0" d="M51.9 53V35.2c0-1.4-1.1-2.5-2.5-2.5s-2.5 1.1-2.5 2.5v19.3c0 .1.1.2.1.3 0 .1 0 .1.1.2 0 .1.1.2.2.3 0 0 0 .1.1.1.1.1.2.3.3.4l11.6 11.6c.5.5 1.1.7 1.8.7.6 0 1.3-.2 1.8-.7 1-1 1-2.6 0-3.5L51.9 53zm-8.7-36.9h12.4c1.4 0 2.5-1.1 2.5-2.5s-1.1-2.5-2.5-2.5H43.2c-1.4 0-2.5 1.1-2.5 2.5s1.1 2.5 2.5 2.5z"/></svg>