<svg xmlns="http://www.w3.org/2000/svg" width="25.302" height="20.926" viewBox="0 0 25.302 20.926"><path fill="#272A2F" d="M19.095 20.926c-3.424 0-6.21-2.785-6.21-6.208s2.786-6.208 6.21-6.208 6.207 2.785 6.207 6.208-2.783 6.208-6.207 6.208zm0-11.416c-2.87 0-5.21 2.336-5.21 5.208s2.34 5.208 5.21 5.208 5.207-2.336 5.207-5.208-2.336-5.208-5.207-5.208zM11.98 20.495a.979.979 0 0 1-.48-.124.65.65 0 0 1-.128-.082l-.303-.21c-.745-.517-2.483-1.726-3.638-2.617C3.02 14.027.766 11.55.336 9.665A7.263 7.263 0 0 1 0 7.524c-.027-2.044.746-4.02 2.12-5.417C3.37.834 5.01.13 6.74.122c1.965-.027 3.715.768 5.01 2.164A6.69 6.69 0 0 1 16.707.002c1.77-.04 3.385.627 4.668 1.868 1.406 1.36 2.23 3.313 2.254 5.36.01.768-.095 1.52-.306 2.234-.035.2-.137.502-.287.836l-1.824-.82c.088-.193.145-.36.172-.495.176-.61.252-1.163.244-1.73-.02-1.516-.618-2.954-1.646-3.946-.896-.868-2.02-1.342-3.242-1.307-1.707.022-3.236.943-4.102 2.462a1 1 0 0 1-.855.505h-.014a.996.996 0 0 1-.854-.482c-.896-1.484-2.428-2.366-4.104-2.366h-.055c-1.197.005-2.336.497-3.21 1.387C2.543 4.527 1.98 5.982 2 7.5c.01.57.096 1.118.263 1.635.2.858 1.262 2.75 6.396 6.747 1.01.782 2.52 1.838 3.333 2.403.48-.332 1.047-.753 1.697-1.26l1.23 1.58c-.983.763-1.77 1.33-2.403 1.734a1.01 1.01 0 0 1-.538.155zm9.878-4.777H16.33a1 1 0 0 1 0-2h5.528a1 1 0 1 1 0 2z"/></svg>