<svg id="Calque_1" xmlns="http://www.w3.org/2000/svg" viewBox="0 0 100 100"><style>.st0{fill:#fff}</style><path class="st0" d="M83.4 56.5L40.3 90.2c-3.2 2.5-7.8 1.9-10.3-1.3L13.5 67.8c-2.5-3.2-1.9-7.8 1.3-10.3L58 23.8c3.2-2.5 7.8-1.9 10.3 1.3l16.4 21.1c2.5 3.2 1.9 7.8-1.3 10.3zm-66.2 4.1c-1.5 1.1-1.7 3.3-.6 4.7L33 86.4c1.1 1.5 3.3 1.7 4.7.6L81 53.3c1.5-1.1 1.7-3.3.6-4.7L65.1 27.5c-1.1-1.5-3.3-1.7-4.7-.6L17.2 60.6z"/><path class="st0" d="M84.6 41.9l-3.2 2.5c-.9.7-2.1.5-2.8-.3-.7-.9-.5-2.1.3-2.8l3.2-2.5c1.5-1.1 1.7-3.3.6-4.7L66.3 12.9c-1.1-1.5-3.3-1.7-4.7-.6L18.4 46c-1.5 1.1-1.7 3.3-.6 4.7l1.9 2.5c.7.9.5 2.1-.3 2.8-.9.7-2.1.5-2.8-.3l-1.9-2.5c-2.5-3.2-1.9-7.8 1.3-10.3L59.1 9.2c3.2-2.5 7.8-1.9 10.3 1.3l16.4 21.1c2.6 3.1 2 7.8-1.2 10.3z"/><path class="st0" d="M21.7 55.5c-.1 0-.1.1-.2.1-.4.2-.8 0-1-.4l-4.1-10.5c-.2-.4 0-.8.4-1 .4-.2.8 0 1 .4L22 54.7c.1.3 0 .6-.3.8zm3.2-2.4c-.1 0-.1.1-.2.1-.4.2-.8 0-1-.4l-4.1-10.5c-.2-.4 0-.8.4-1 .4-.2.8 0 1 .4l4.1 10.5c.1.3 0 .7-.2.9zm3.1-2.5c-.1 0-.1.1-.2.1-.4.2-.8 0-1-.4l-4.1-10.5c-.2-.4 0-.8.4-1 .4-.2.8 0 1 .4l4.1 10.5c.2.4.1.7-.2.9zm3.1-2.4c-.1 0-.1.1-.2.1-.4.2-.8 0-1-.4l-4.1-10.5c-.2-.4 0-.8.4-1 .4-.2.8 0 1 .4l4.1 10.5c.2.4.1.7-.2.9zm3.2-2.4c-.1 0-.1.1-.2.1-.4.2-.8 0-1-.4L29 34.9c-.2-.4 0-.8.4-1 .4-.2.8 0 1 .4l4.1 10.5c.1.4 0 .8-.2 1zm3.1-2.5c-.1 0-.1.1-.2.1-.4.2-.8 0-1-.4l-4.1-10.5c-.2-.4 0-.8.4-1 .4-.2.8 0 1 .4l4.1 10.5c.2.4.1.7-.2.9zm3.1-2.4c-.1 0-.1.1-.2.1-.4.2-.8 0-1-.4l-4-10.6c-.2-.4 0-.8.4-1 .4-.2.8 0 1 .4L40.8 40c.1.3 0 .7-.3.9zm3.2-2.5c-.1 0-.1.1-.2.1-.4.2-.8 0-1-.4l-4.1-10.5c-.2-.4 0-.8.4-1 .4-.2.8 0 1 .4l4.1 10.5c.1.4 0 .7-.2.9zm3.1-2.4c-.1 0-.1.1-.2.1-.4.2-.8 0-1-.4l-4.1-10.5c-.2-.4 0-.8.4-1 .4-.2.8 0 1 .4L47 35.1c.2.3.1.7-.2.9zm3.1-2.5c-.1 0-.1.1-.2.1-.4.2-.8 0-1-.4l-4.1-10.5c-.2-.4 0-.8.4-1 .4-.2.8 0 1 .4l4.1 10.5c.2.4.1.7-.2.9zm3.2-2.4c-.1 0-.1.1-.2.1-.4.2-.8 0-1-.4l-4.1-10.5c-.2-.4 0-.8.4-1 .4-.2.8 0 1 .4l4.1 10.5c.1.3 0 .7-.2.9zm3.1-2.5c-.1 0-.1.1-.2.1-.4.2-.8 0-1-.4l-4.1-10.5c-.2-.4 0-.8.4-1 .4-.2.8 0 1 .4l4.1 10.5c.2.4.1.7-.2.9zm3.1-2.4c-.1 0-.1.1-.2.1-.4.2-.8 0-1-.4L54 15.4c-.2-.4 0-.8.4-1 .4-.2.8 0 1 .4l4.1 10.5c.2.3.1.7-.2.9zm3.2-2.4c-.1 0-.1.1-.2.1-.4.2-.8 0-1-.4L57.2 13c-.2-.4 0-.8.4-1 .4-.2.8 0 1 .4l4.1 10.5c.1.3 0 .7-.2.9zm7 6.1c-.1 0-.1.1-.2.1-.4.2-.8 0-1-.4l-8-19.1c-.2-.4 0-.8.4-1 .4-.2.8 0 1 .4l8 19.1c.1.3 0 .7-.2.9zm7.4 9.7c-.1 0-.1.1-.2.1-.4.2-.8 0-1-.4L64.6 11c-.2-.4 0-.8.4-1 .4-.2.8 0 1 .4l11.1 28.2c.1.4 0 .8-.2 1zm4.4 3c-.1 0-.1.1-.2.1-.4.1-.8-.1-1-.4l-9-24.5c-.1-.4.1-.8.4-1 .4-.1.8.1 1 .4l9 24.5c.1.4 0 .7-.2.9zm3.2-2.3c-.1 0-.1.1-.2.1-.4.1-.8-.1-1-.4l-5.7-15.4c-.1-.4.1-.8.4-1 .4-.1.8.1 1 .4l5.7 15.4c.2.4.1.8-.2.9z"/></svg>