<svg version="1.2" baseProfile="tiny" xmlns="http://www.w3.org/2000/svg" width="841.89" height="595.28" viewBox="0 0 841.89 595.28"><path fill="#51473D" d="M136.182 132.376h-3.812a.355.355 0 0 1 0-.709h3.457v-3.457a.356.356 0 0 1 .71-.001v3.81c0 .197-.16.356-.355.356zm6.565 3.194H132.37a.355.355 0 0 1-.355-.356v-3.193c0-.093.038-.184.104-.25l3.81-3.812a.36.36 0 0 1 .252-.104h6.565c.196 0 .355.16.355.355v7.004c0 .197-.16.355-.355.355zm-10.022-.71h9.667v-6.295h-6.063l-3.605 3.604v2.69zm10.022 8.962H132.37a.355.355 0 0 1-.355-.355v-3.512c0-.197.16-.355.355-.355h10.377c.196 0 .355.16.355.355v3.512c0 .196-.16.355-.355.355zm-10.022-.71h9.667v-2.803h-9.667v2.8zm13.175-.517h-2.225v-1.42h.804v-5.157h-13.844v5.156h.804v1.42h-2.226v-7.998H145.9v8zm-4.176-5.522a.837.837 0 1 0 .001-.002zm-2.044 1.007h-4.37a.356.356 0 0 1 .001-.711h4.37a.354.354 0 1 1-.001.709z"/></svg>