<svg id="Calque_4" xmlns="http://www.w3.org/2000/svg" viewBox="0 0 100 100"><style>.st0{fill:#185e3e}.st1{fill:#010101}.st2,.st3{fill:#fff;stroke:#fff;stroke-miterlimit:10}.st3{fill:none;stroke:#fde62f}</style><path class="st0" d="M77 43.1l-3.2 2.5c-.9.7-2.1.5-2.7-.3-.6-.8-.5-2 .4-2.7l3.2-2.5c1.4-1.1 1.7-3.1.7-4.5L60 16c-1.1-1.4-3.1-1.6-4.5-.4l-42.3 33c-1.4 1.1-1.7 3.1-.7 4.5l1.8 2.3c.6.8.5 2-.4 2.7-.9.7-2.1.5-2.7-.3l-1.8-2.3c-2.3-3-1.7-7.4 1.5-9.8l42.3-33c3.1-2.4 7.6-2 9.9 1l15.3 19.6c2.4 2.9 1.7 7.4-1.4 9.8z"/><path class="st0" d="M18.6 55.6c-.1 0-.1.1-.2.1-.4.1-.8 0-.9-.4l-3.8-9.8c-.1-.4 0-.8.4-.9.4-.1.8 0 .9.4l3.8 9.8c.2.3.1.6-.2.8zm3-2.2c-.1 0-.1.1-.2.1-.4.1-.8 0-.9-.4l-3.8-9.8c-.1-.4 0-.8.4-.9.4-.1.8 0 .9.4l3.8 9.8c.1.2 0 .6-.2.8zm2.9-2.3c-.1 0-.1.1-.2.1-.4.1-.8 0-.9-.4L19.6 41c-.1-.4 0-.8.4-.9.4-.1.8 0 .9.4l3.8 9.8c.1.3 0 .6-.2.8zm2.9-2.3c-.1 0-.1.1-.2.1-.4.1-.8 0-.9-.4l-3.8-9.8c-.1-.4 0-.8.4-.9.4-.1.8 0 .9.4l3.8 9.8c.1.3 0 .6-.2.8zm2.9-2.3c-.1 0-.1.1-.2.1-.4.1-.8 0-.9-.4l-3.8-9.8c-.1-.4 0-.8.4-.9.4-.1.8 0 .9.4l3.8 9.8c.2.3.1.6-.2.8zm3-2.3c-.1 0-.1.1-.2.1-.4.1-.8 0-.9-.4l-3.8-9.8c-.1-.4 0-.8.4-.9.4-.1.8 0 .9.4l3.8 9.8c.1.3 0 .7-.2.8zm2.9-2.2c-.1 0-.1.1-.2.1-.4.1-.8 0-.9-.4l-3.8-9.8c-.1-.4 0-.8.4-.9.4-.1.8 0 .9.4l3.8 9.8c.1.2 0 .6-.2.8zm2.9-2.3c-.1 0-.1.1-.2.1-.4.1-.8 0-.9-.4l-3.8-9.8c-.1-.4 0-.8.4-.9.4-.1.8 0 .9.4l3.8 9.8c.1.3 0 .6-.2.8zm2.9-2.3c-.1 0-.1.1-.2.1-.4.1-.8 0-.9-.4l-3.8-9.8c-.1-.4 0-.8.4-.9.4-.1.8 0 .9.4l3.8 9.8c.2.3.1.6-.2.8zm2.9-2.3c-.1 0-.1.1-.2.1-.4.1-.8 0-.9-.4L40 25c-.1-.4 0-.8.4-.9.4-.1.8 0 .9.4l3.8 9.8c.2.3.1.6-.2.8zm3-2.3c-.1 0-.1.1-.2.1-.4.1-.8 0-.9-.4L43 22.7c-.1-.4 0-.8.4-.9.4-.1.8 0 .9.4l3.8 9.8c.1.3 0 .7-.2.8zm2.9-2.2c-.1 0-.1.1-.2.1-.4.1-.8 0-.9-.4l-3.8-9.8c-.1-.4 0-.8.4-.9.4-.1.8 0 .9.4l3.8 9.8c.1.3 0 .6-.2.8zm2.9-2.3c-.1 0-.1.1-.2.1-.4.1-.8 0-.9-.4l-3.8-9.8c-.1-.4 0-.8.4-.9.4-.1.8 0 .9.4l3.8 9.8c.1.3 0 .6-.2.8zm2.9-2.3c-.1 0-.1.1-.2.1-.4.1-.8 0-.9-.4l-3.8-9.8c-.1-.4 0-.8.4-.9.4-.1.8 0 .9.4l3.8 9.8c.2.3.1.6-.2.8zm6.6 5.7s-.1.1-.2.1c-.4.1-.8 0-.9-.4l-7.4-17.8c-.1-.4 0-.8.4-.9.4-.1.8 0 .9.4l7.4 17.8c.1.3 0 .6-.2.8zm6.8 9c-.1 0-.1.1-.2.1-.4.1-.8 0-.9-.4L58.6 14.1c-.1-.4 0-.8.4-.9.4-.1.8 0 .9.4l10.3 26.3c.2.3.1.7-.2.8z"/><path class="st1" d="M74.2 43.6c-.1 0-.1.1-.2.1-.4.1-.8-.1-.9-.4l-8.4-22.8c-.1-.4.1-.8.4-.9.4-.1.8.1.9.4l8.4 22.8c.1.3 0 .6-.2.8zm3-2.1c-.1 0-.1.1-.2.1-.4.1-.8-.1-.9-.4l-5.3-14.4c-.1-.4 0-.8.4-.9.4-.1.8.1.9.4l5.3 14.4c.1.3 0 .6-.2.8z"/><path class="st2" d="M70.3 16.1L89 42.3 32.2 87.8 11.2 63z"/><path class="st0" d="M90.1 36.9L74.8 17.3c-2.3-3-7.3-3-11.1-.1L12.9 56.8c-3.8 2.9-4.9 7.8-2.6 10.7l15.3 19.7c2.3 3 7.3 3 11.1.1l50.8-39.6c3.8-2.9 4.9-7.8 2.6-10.8zm-5.9 6.8L33.4 83.4c-1.7 1.3-4 1.3-5.1 0L15 65.7c-1.1-1.4-.5-3.6 1.2-4.9L67 21.2c1.7-1.3 4-1.3 5 0l13.3 17.7c1.2 1.3.6 3.5-1.1 4.8z"/></svg>
