<svg id="Calque_2" xmlns="http://www.w3.org/2000/svg" viewBox="0 0 100 100"><style>.st0{fill:#b1d163}</style><path class="st0" d="M49.9 89c-.7 0-1.5-.3-2.1-.8-3.2-2.6-30.9-26.8-30.9-44.2 0-18.2 14.8-33 33-33s33 14.8 33 33c0 17.4-27.7 41.5-30.9 44.2-.6.6-1.4.8-2.1.8zm0-72.8c-15.2 0-27.6 12.4-27.6 27.6 0 11.8 18.3 30.7 27.6 39.1 9.4-8.4 27.6-27.3 27.6-39.1 0-15.2-12.4-27.6-27.6-27.6z"/><path class="st0" d="M49.9 60.1c-8.9 0-16.1-7.2-16.1-16.1S41 28 49.9 28C58.8 28 66 35.2 66 44s-7.2 16.1-16.1 16.1zm0-27.4c-6.3 0-11.3 5.1-11.3 11.3 0 6.3 5.1 11.3 11.3 11.3 6.3 0 11.3-5.1 11.3-11.3 0-6.2-5.1-11.3-11.3-11.3z"/></svg>