<svg version="1.2" baseProfile="tiny" xmlns="http://www.w3.org/2000/svg" width="16" height="15.293" viewBox="9.022 8.504 16 15.293"><path d="M9.225 13.48h3.43v10.317h-3.43zm8.755 10.317v-5.762c0-.312.022-.615.114-.837.248-.614.813-1.256 1.76-1.256 1.242 0 1.738.948 1.738 2.334v5.52h3.43v-5.915c0-3.17-1.692-4.643-3.948-4.643-1.82 0-2.636.998-3.093 1.703v.033h-.02c.008-.01.017-.02.02-.033v-1.46h-3.428c.044.967 0 10.316 0 10.316h3.43zM10.917 12.07h.02c1.197 0 1.94-.793 1.94-1.782-.02-1.013-.743-1.783-1.917-1.783-1.17 0-1.94.77-1.94 1.783.002.99.747 1.782 1.897 1.782zm7.063 2.905v-.033c-.005.012-.015.023-.02.033h.02z"/></svg>