<svg version="1.2" baseProfile="tiny" xmlns="http://www.w3.org/2000/svg" width="75.521" height="84.109" viewBox="0 0 75.521 84.109"><path d="M71.5 48.873l-43.157 33.68c-3.203 2.5-7.84 1.928-10.34-1.273L1.554 60.202c-2.496-3.2-1.922-7.836 1.28-10.336l43.156-33.68c3.2-2.498 7.834-1.926 10.332 1.274L72.77 38.537c2.5 3.202 1.928 7.838-1.27 10.336zM5.293 53.02a3.369 3.369 0 0 0-.587 4.722l16.45 21.077a3.369 3.369 0 0 0 4.724.58l43.157-33.68a3.369 3.369 0 0 0 .58-4.72l-16.45-21.08a3.365 3.365 0 0 0-4.717-.58L5.294 53.02zM72.69 34.24l-3.243 2.532a2 2 0 0 1-2.461-3.153l3.243-2.532a3.367 3.367 0 0 0 .58-4.72L54.365 5.29a3.368 3.368 0 0 0-4.722-.584L6.485 38.39a3.369 3.369 0 0 0-.58 4.72l1.944 2.492a2 2 0 0 1-3.154 2.46l-1.944-2.49c-2.5-3.202-1.928-7.84 1.272-10.336L47.182 1.555C50.382-.943 55.02-.37 57.518 2.83l16.447 21.075c2.498 3.202 1.926 7.84-1.275 10.336zM9.81 47.91a.749.749 0 0 1-1.158-.32L4.555 37.085a.75.75 0 1 1 1.397-.545l4.096 10.505a.755.755 0 0 1-.24.864zm3.134-2.446a.75.75 0 0 1-1.16-.318L7.69 34.64a.749.749 0 0 1 1.395-.545L13.18 44.6a.75.75 0 0 1-.236.864zm3.133-2.444a.748.748 0 0 1-1.16-.319L10.82 32.197a.749.749 0 1 1 1.398-.544l4.096 10.505a.751.751 0 0 1-.237.863zm3.133-2.445a.748.748 0 0 1-1.16-.319L13.954 29.75a.75.75 0 0 1 1.398-.543l4.094 10.505a.751.751 0 0 1-.237.863zm3.13-2.445a.748.748 0 0 1-1.158-.319l-4.096-10.504a.749.749 0 1 1 1.397-.544l4.096 10.505a.75.75 0 0 1-.24.863zm3.134-2.445a.749.749 0 0 1-1.16-.319L20.22 24.86a.749.749 0 1 1 1.396-.544l4.095 10.505a.748.748 0 0 1-.236.865zm3.133-2.445a.749.749 0 0 1-1.16-.318L23.35 22.417a.75.75 0 1 1 1.398-.545l4.096 10.505a.752.752 0 0 1-.237.864zm3.133-2.444a.752.752 0 0 1-1.16-.319l-4.095-10.505a.75.75 0 0 1 1.398-.544l4.094 10.505a.75.75 0 0 1-.237.863zm3.132-2.446a.75.75 0 0 1-1.16-.318l-4.096-10.505a.749.749 0 1 1 1.397-.544l4.096 10.505a.752.752 0 0 1-.238.863zm3.132-2.444a.749.749 0 0 1-1.16-.319L32.75 15.083a.749.749 0 1 1 1.396-.544l4.095 10.504a.743.743 0 0 1-.236.862zm3.133-2.446a.75.75 0 0 1-1.16-.318L35.88 12.637a.749.749 0 1 1 1.398-.544l4.096 10.505a.749.749 0 0 1-.237.863zm3.133-2.443a.749.749 0 0 1-1.16-.318l-4.094-10.506a.749.749 0 1 1 1.396-.545l4.095 10.504a.75.75 0 0 1-.237.863zm3.132-2.445a.749.749 0 0 1-1.16-.32L42.146 7.748a.749.749 0 1 1 1.397-.545l4.096 10.505a.752.752 0 0 1-.238.864zm3.133-2.445a.749.749 0 0 1-1.16-.319L45.28 5.303a.748.748 0 1 1 1.396-.544l4.095 10.504a.745.745 0 0 1-.235.863zm7.005 6.143a.748.748 0 0 1-1.154-.301L48.42 2.874a.745.745 0 0 1 .402-.98c.382-.16.822.02.98.403L57.77 21.39a.75.75 0 0 1-.23.88zm7.386 9.668a.752.752 0 0 1-1.16-.318L52.706 3.378a.749.749 0 0 1 .425-.972c.387-.15.822.04.973.424l11.06 28.243a.75.75 0 0 1-.237.865zm4.428 3.046a.75.75 0 0 1-1.165-.332l-9.012-24.464a.75.75 0 0 1 1.407-.519l9.01 24.463a.746.746 0 0 1-.24.85zm3.246-2.258a.75.75 0 0 1-1.164-.332l-5.69-15.397a.749.749 0 1 1 1.405-.519l5.69 15.397a.747.747 0 0 1-.24.85z" fill="#fff"/></svg>