<svg version="1" xmlns="http://www.w3.org/2000/svg" width="23.36" height="26.056" viewBox="406.588 1123.335 23.36 26.056"><path fill="#fff" d="M407.588 1149.39a1 1 0 0 1-1-1v-19.828c0-.353.186-.68.488-.86l7.097-4.226c.175-.104.37-.15.57-.14.186-.01.393.035.567.14l6.563 3.91 6.563-3.91a1 1 0 0 1 1.513.858v19.83c0 .353-.188.68-.49.858l-6.933 4.13a1.046 1.046 0 0 1-1.307.002l-6.48-3.86-6.64 3.956a.997.997 0 0 1-.512.14zm1-20.26v17.5l5.097-3.034v-17.5l-5.097 3.034zm14.308-.026v17.5l5.053-3.008v-17.5l-5.054 3.008zm-7.097 14.492l5.052 3.01v-17.502l-5.053-3.01v17.502z"/></svg>