<svg xmlns="http://www.w3.org/2000/svg" width="23.834" height="23.834" viewBox="0 0 23.834 23.834"><path fill="#b32339" d="M22.834 23.834H1a1 1 0 0 1-1-1V1a1 1 0 1 1 2 0v20.834h20.834a1 1 0 1 1 0 2zM1.332 23.45a1 1 0 0 1-.83-1.557l5.25-7.833a.999.999 0 0 1 1.278-.338l1.72.86L12 7.052a.993.993 0 0 1 1.233-.55l1.923.64L22.01.482a1 1 0 0 1 1.394 1.435L16.114 9a.992.992 0 0 1-1.014.23l-1.63-.54-3.304 7.656a.998.998 0 0 1-1.365.497l-1.877-.94-4.76 7.103a.997.997 0 0 1-.83.443zM22.834 9.22a1 1 0 0 1-1-1V2h-6.22a1 1 0 1 1 0-2h7.22a1 1 0 0 1 1 1v7.22c0 .55-.448 1-1 1zM5.25 23.284a.5.5 0 0 1-.5-.5v-2.167a.5.5 0 1 1 1 0v2.167a.5.5 0 0 1-.5.5zm4.27 0a.5.5 0 0 1-.5-.5v-2.167a.5.5 0 0 1 1 0v2.167c0 .277-.223.5-.5.5zm4.272 0a.5.5 0 0 1-.5-.5v-2.167a.5.5 0 0 1 1 0v2.167a.5.5 0 0 1-.5.5zm4.271 0a.5.5 0 0 1-.5-.5v-2.167a.5.5 0 0 1 1 0v2.167c0 .277-.223.5-.5.5zm4.272 0a.5.5 0 0 1-.5-.5v-2.167a.5.5 0 0 1 1 0v2.167a.5.5 0 0 1-.5.5zM3.21 2.075H1.04a.5.5 0 0 1 0-1h2.17a.5.5 0 0 1 0 1zm0 4.271H1.04a.5.5 0 0 1 0-1h2.17a.5.5 0 0 1 0 1zm0 4.271H1.04a.5.5 0 0 1 0-1h2.17a.5.5 0 0 1 0 1zm0 4.273H1.04a.5.5 0 0 1 0-1h2.17a.5.5 0 0 1 0 1zm0 4.27H1.04a.5.5 0 0 1 0-1h2.17a.5.5 0 0 1 0 1z"/></svg>