<svg version="1.2" baseProfile="tiny" xmlns="http://www.w3.org/2000/svg" width="34.016" height="34.016" viewBox="0 0 34.016 34.016"><path fill="#fff" d="M13.555 15.963v2.082h3.47c-.15.875-1.057 2.595-3.47 2.595-2.112 0-3.804-1.72-3.804-3.803s1.722-3.803 3.805-3.803c1.207 0 1.992.513 2.444.936l1.66-1.57c-1.057-.995-2.445-1.6-4.105-1.6-3.41 0-6.157 2.687-6.157 6.036 0 3.35 2.747 6.036 6.157 6.036 3.56 0 5.885-2.444 5.885-5.886a4.9 4.9 0 0 0-.09-.996h-5.795v-.027zm11.407 0v-1.72h-1.75v1.72h-1.75v1.72h1.75v1.72h1.75v-1.72h1.75v-1.72h-1.75z"/></svg>