<svg id="Calque_2" xmlns="http://www.w3.org/2000/svg" viewBox="0 0 100 100"><style>.st0{fill:#b32339}</style><path class="st0" d="M83.6 25H41.5c-1.7 0-3.1-1.4-3.1-3.1 0-1.7 1.4-3.1 3.1-3.1h42.1c1.7 0 3.1 1.4 3.1 3.1.1 1.7-1.3 3.1-3.1 3.1zm-56.8 5.2H16.4c-1.7 0-3.1-1.4-3.1-3.1V16.7c0-1.7 1.4-3.1 3.1-3.1h10.4c1.7 0 3.1 1.4 3.1 3.1v10.4c0 1.7-1.4 3.1-3.1 3.1zM19.5 24h4.2v-4.2h-4.2V24zm64.1 29.1H41.5c-1.7 0-3.1-1.4-3.1-3.1 0-1.7 1.4-3.1 3.1-3.1h42.1c1.7 0 3.1 1.4 3.1 3.1.1 1.7-1.3 3.1-3.1 3.1zm-56.8 5.2H16.4c-1.7 0-3.1-1.4-3.1-3.1V44.8c0-1.7 1.4-3.1 3.1-3.1h10.4c1.7 0 3.1 1.4 3.1 3.1v10.4c0 1.7-1.4 3.1-3.1 3.1zm-7.3-6.2h4.2v-4.2h-4.2v4.2zm64.1 29.1H41.5c-1.7 0-3.1-1.4-3.1-3.1 0-1.7 1.4-3.1 3.1-3.1h42.1c1.7 0 3.1 1.4 3.1 3.1.1 1.7-1.3 3.1-3.1 3.1zm-56.8 5.2H16.4c-1.7 0-3.1-1.4-3.1-3.1V72.9c0-1.7 1.4-3.1 3.1-3.1h10.4c1.7 0 3.1 1.4 3.1 3.1v10.4c0 1.7-1.4 3.1-3.1 3.1zm-7.3-6.2h4.2V76h-4.2v4.2z"/></svg>
